<svg width="40" height="40" viewBox="0 0 40 40" fill="none" xmlns="http://www.w3.org/2000/svg">
<g clip-path="url(#clip0_200_229790)">
<path d="M5.94883 35.5862L2.82227 0.519043H37.1773L34.0473 35.5809L19.9788 39.4809L5.94883 35.5862Z" fill="#E44D26"/>
<path d="M20 36.5L31.3681 33.3481L34.0428 3.38623H20V36.5Z" fill="#F16529"/>
<path d="M19.9995 16.392H14.3083L13.9152 11.9876H19.9995V7.68701H9.21484L9.31797 8.84076L10.3748 20.693H19.9995V16.392ZM19.9995 27.5617L19.9805 27.567L15.1908 26.2733L14.8848 22.8436H10.567L11.1695 29.5964L19.9798 32.042L19.9995 32.0367V27.5617Z" fill="#EBEBEB"/>
<path d="M19.9854 16.392V20.693H25.2813L24.7822 26.2708L19.9854 27.5654V32.0401L28.8025 29.5964L28.8672 28.8698L29.8779 17.547L29.9825 16.392H28.8238H19.9854ZM19.9854 7.68701V11.9876H30.3741L30.4604 11.0214L30.6566 8.84076L30.7594 7.68701H19.9854Z" fill="white"/>
</g>
<defs>
<clipPath id="clip0_200_229790">
<rect width="40" height="40" fill="white"/>
</clipPath>
</defs>
</svg>
