<svg width="40" height="39" viewBox="0 0 40 39" fill="none" xmlns="http://www.w3.org/2000/svg">
<g clip-path="url(#clip0_200_229767)">
<path d="M33.3594 0H6.64062C2.97311 0 0 2.96835 0 6.63V32.3076C0 35.9692 2.97311 38.9376 6.64062 38.9376H33.3594C37.0269 38.9376 40 35.9692 40 32.3076V6.63C40 2.96835 37.0269 0 33.3594 0Z" fill="#330000"/>
<path d="M19.3835 23.3671H13.1851L11.9239 27.2785C11.9067 27.3499 11.8651 27.413 11.8064 27.457C11.7476 27.501 11.6752 27.5232 11.6018 27.5197H8.46229C8.28334 27.5197 8.22073 27.4214 8.27448 27.2249L13.6412 11.7936C13.6948 11.633 13.7485 11.4499 13.8021 11.2445C13.8725 10.887 13.9084 10.5238 13.9095 10.1595C13.9058 10.1341 13.9082 10.1081 13.9163 10.0837C13.9245 10.0592 13.9382 10.037 13.9564 10.0188C13.9746 10.0006 13.9968 9.98691 14.0213 9.97876C14.0458 9.97061 14.0718 9.96825 14.0973 9.97188H18.3639C18.4889 9.97188 18.5604 10.0166 18.5785 10.106L24.6696 27.2517C24.7233 27.4306 24.6696 27.5199 24.5087 27.5197H21.0203C20.9604 27.5262 20.9001 27.5108 20.8508 27.4763C20.8014 27.4418 20.7663 27.3906 20.752 27.3322L19.3835 23.3671ZM14.151 19.9916H18.3907L18.3303 19.7924L18.2332 19.477L18.164 19.2554L18.0535 18.9066L17.8187 18.1723L17.6121 17.5213L17.0757 15.8256C16.9422 15.4041 16.8141 14.9809 16.6914 14.5561L16.5932 14.2113L16.4785 13.8037L16.3035 13.1719L16.2707 13.0529H16.244C16.1097 13.6959 15.9462 14.3325 15.754 14.9608L15.3559 16.2393L15.1368 16.9457L14.9157 17.6608C14.8758 17.79 14.836 17.9177 14.7962 18.0439L14.6774 18.418L14.5593 18.7834L14.4418 19.1397L14.325 19.4871C14.2862 19.6015 14.2475 19.7143 14.2089 19.8256L14.151 19.9916ZM28.2918 12.8117C28.0182 12.8226 27.7453 12.7758 27.4909 12.6742C27.2366 12.5727 27.0067 12.4187 26.816 12.2223C26.6261 12.0174 26.4785 11.7769 26.3818 11.5149C26.285 11.2528 26.2411 10.9743 26.2525 10.6952C26.2427 10.419 26.2915 10.1438 26.3955 9.88761C26.4995 9.63144 26.6565 9.40005 26.8562 9.20857C27.2414 8.83941 27.7543 8.63283 28.2882 8.63184L28.3454 8.63246C28.9895 8.63246 29.4949 8.82444 29.8617 9.20841C30.0467 9.40798 30.1906 9.64202 30.285 9.89715C30.3793 10.1523 30.4224 10.4235 30.4117 10.6952C30.423 10.9754 30.3778 11.255 30.2787 11.5174C30.1796 11.7798 30.0286 12.0196 29.8348 12.2225C29.6392 12.415 29.407 12.5664 29.1518 12.668C28.8967 12.7695 28.6238 12.8191 28.3492 12.8137L28.2918 12.8117ZM26.4403 27.2517V14.446C26.4402 14.2852 26.5117 14.2048 26.655 14.2048H29.9556C30.0986 14.2048 30.1702 14.2852 30.1703 14.446V27.2517C30.1703 27.4306 30.0987 27.5199 29.9556 27.5197H26.6818C26.5293 27.5197 26.4491 27.4395 26.441 27.2791L26.4403 27.2517Z" fill="#FF9A00"/>
</g>
<defs>
<clipPath id="clip0_200_229767">
<rect width="40" height="39" fill="white"/>
</clipPath>
</defs>
</svg>
