<svg width="40" height="40" viewBox="0 0 40 40" fill="none" xmlns="http://www.w3.org/2000/svg">
<g clip-path="url(#clip0_200_229824)">
<path d="M30.625 37.8125H31.5625V15.3125L29.6875 18.125V35.625L30.625 37.8125Z" fill="url(#paint0_linear_200_229824)"/>
<path d="M30.625 37.8125V15.9375L37.8125 2.1875H39.375V19.0625L32.5 37.8125H30.625Z" fill="url(#paint1_linear_200_229824)"/>
<path d="M39.375 37.8125H30.625C31.5313 36.0313 35.0312 28.6875 36.5625 22.8125C39.2188 12.4688 39.375 4.6875 39.375 4.6875V37.8125Z" fill="url(#paint2_linear_200_229824)"/>
<path d="M39.375 2.1875H27.8125L19.6875 21.5625L23.125 30.9375H23.4375C23.5625 30.9375 23.75 30.8438 24.0625 30.3125C25.3437 27.9375 39.375 2.1875 39.375 2.1875Z" fill="url(#paint3_linear_200_229824)"/>
<path d="M0.625 38.0312L1.5625 37.8125L10 22.5V17.5L1.5625 2.8125L0.625 2.3125V38.0312Z" fill="url(#paint4_linear_200_229824)"/>
<path d="M10 18.4688C9.28125 20.625 7.53125 25.8438 5.75 29.1875C2.5625 35.3125 0.625 38.0312 0.625 38.0312C0.625 38.0312 8.03125 38.6563 10 36.25V18.4688Z" fill="url(#paint5_linear_200_229824)"/>
<path d="M16.25 30.3125C16.5625 30.875 16.75 30.9375 16.875 30.9375H23.4375C23.5 30.875 23.5625 30.8125 23.5625 30.7188C23.5313 30.5938 23.5 30.4375 23.4375 30.3125L11.875 1.25L0.625 2.3125C0.625 2.3125 14.9062 27.875 16.25 30.3125Z" fill="url(#paint6_linear_200_229824)"/>
</g>
<defs>
<linearGradient id="paint0_linear_200_229824" x1="31.4928" y1="26.5919" x2="27.055" y2="28.4556" gradientUnits="userSpaceOnUse">
<stop offset="0.09" stop-color="#1A5964"/>
<stop offset="0.3" stop-color="#137078"/>
<stop offset="0.5" stop-color="#0E8085"/>
<stop offset="0.66" stop-color="#0C858A"/>
<stop offset="1" stop-color="#0A8B8F"/>
</linearGradient>
<linearGradient id="paint1_linear_200_229824" x1="31.1191" y1="17.5384" x2="40.6769" y2="23.6009" gradientUnits="userSpaceOnUse">
<stop stop-color="#079EA0"/>
<stop offset="0.43" stop-color="#14878E"/>
<stop offset="1" stop-color="#256A77"/>
</linearGradient>
<linearGradient id="paint2_linear_200_229824" x1="35" y1="5.26094" x2="35" y2="37.6553" gradientUnits="userSpaceOnUse">
<stop stop-color="#B4B4B4"/>
<stop offset="0.8" stop-color="#03ABAB"/>
<stop offset="1" stop-color="#137980"/>
</linearGradient>
<linearGradient id="paint3_linear_200_229824" x1="18.5466" y1="17.9428" x2="42.3391" y2="13.3047" gradientUnits="userSpaceOnUse">
<stop stop-color="#0F5D64"/>
<stop offset="0.1" stop-color="#097A7E"/>
<stop offset="0.23" stop-color="#049395"/>
<stop offset="0.34" stop-color="#01A3A3"/>
<stop offset="0.43" stop-color="#00A8A8"/>
<stop offset="1" stop-color="#4EBCC1"/>
</linearGradient>
<linearGradient id="paint4_linear_200_229824" x1="-3.12594" y1="22.5103" x2="8.36625" y2="15.8587" gradientUnits="userSpaceOnUse">
<stop stop-color="#00A9A9"/>
<stop offset="0.65" stop-color="#049496"/>
<stop offset="1" stop-color="#088286"/>
</linearGradient>
<linearGradient id="paint5_linear_200_229824" x1="0.64375" y1="28.6384" x2="10.0044" y2="28.1203" gradientUnits="userSpaceOnUse">
<stop stop-color="#20626E"/>
<stop offset="1" stop-color="#069D9F"/>
</linearGradient>
<linearGradient id="paint6_linear_200_229824" x1="12.8237" y1="1.64562" x2="11.355" y2="31.7431" gradientUnits="userSpaceOnUse">
<stop stop-color="#99CBD2"/>
<stop offset="0.9" stop-color="#498F93"/>
<stop offset="1" stop-color="#2E7B7D"/>
</linearGradient>
<clipPath id="clip0_200_229824">
<rect width="40" height="40" fill="white"/>
</clipPath>
</defs>
</svg>
