<svg width="40" height="40" viewBox="0 0 40 40" fill="none" xmlns="http://www.w3.org/2000/svg">
<g clip-path="url(#clip0_200_229738)">
<path d="M38.2277 0H19.0166C19.0166 1.13886 19.2408 2.26657 19.6766 3.31875C20.1125 4.37093 20.7512 5.32696 21.5565 6.13225C22.3618 6.93755 23.3179 7.57634 24.37 8.01214C25.4222 8.44794 26.5499 8.67223 27.6888 8.67219H31.2277V12.0891C31.2308 16.8742 35.1091 20.7527 39.8943 20.7558V1.66656C39.8943 0.746406 39.1483 0 38.2277 0Z" fill="#2684FF"/>
<path d="M28.7227 9.57227H9.51172C9.51469 14.3574 13.393 18.2359 18.1783 18.239H21.7172V21.6668C21.7233 26.452 25.6042 30.3277 30.3894 30.3277V11.2391C30.3894 10.3187 29.6431 9.57227 28.7227 9.57227Z" fill="url(#paint0_linear_200_229738)"/>
<path d="M19.2111 19.1387H0C0 23.9282 3.88281 27.8109 8.67219 27.8109H12.2222V31.2276C12.2253 36.0084 16.0969 39.8851 20.8778 39.8941V20.8054C20.8778 19.8849 20.1316 19.1387 19.2111 19.1387Z" fill="url(#paint1_linear_200_229738)"/>
</g>
<defs>
<linearGradient id="paint0_linear_200_229738" x1="2056.17" y1="12.9139" x2="1243.93" y2="860.454" gradientUnits="userSpaceOnUse">
<stop offset="0.18" stop-color="#0052CC"/>
<stop offset="1" stop-color="#2684FF"/>
</linearGradient>
<linearGradient id="paint1_linear_200_229738" x1="2101.66" y1="28.5824" x2="1162.1" y2="952.989" gradientUnits="userSpaceOnUse">
<stop offset="0.18" stop-color="#0052CC"/>
<stop offset="1" stop-color="#2684FF"/>
</linearGradient>
<clipPath id="clip0_200_229738">
<rect width="40" height="40" fill="white"/>
</clipPath>
</defs>
</svg>
