<svg width="40" height="40" viewBox="0 0 40 40" fill="none" xmlns="http://www.w3.org/2000/svg">
<path d="M16.5656 9.82491C17.8094 8.53116 19.5375 7.72803 21.4531 7.72803C23.9969 7.72803 26.2156 9.14678 27.3969 11.253C28.4538 10.7806 29.5986 10.5367 30.7563 10.5374C35.3438 10.5374 39.0625 14.2905 39.0625 18.9155C39.0625 23.5437 35.3438 27.2968 30.7563 27.2968C30.1969 27.2968 29.65 27.2405 29.1188 27.1343C28.0781 28.9905 26.0938 30.2437 23.8188 30.2437C22.8656 30.2437 21.9656 30.0249 21.1625 29.6312C20.1063 32.1124 17.65 33.853 14.7844 33.853C11.8 33.853 9.25937 31.9655 8.28437 29.3187C7.85937 29.4093 7.41562 29.4562 6.9625 29.4562C3.40938 29.4562 0.53125 26.5468 0.53125 22.9593C0.53125 20.553 1.825 18.453 3.74687 17.3312C3.33872 16.3937 3.12911 15.3818 3.13125 14.3593C3.13125 10.2312 6.48125 6.88428 10.6156 6.88428C13.0406 6.88116 15.2 8.03741 16.5656 9.82491Z" fill="#00A1E0"/>
<path d="M6.11251 20.8687C6.08751 20.9312 6.12189 20.9437 6.12814 20.9562C6.20001 21.0093 6.27501 21.0468 6.34689 21.0905C6.74064 21.2999 7.10939 21.3593 7.50001 21.3593C8.29064 21.3593 8.78126 20.9374 8.78126 20.2624V20.2499C8.78126 19.6249 8.22814 19.3968 7.70626 19.2343L7.63751 19.2124C7.24689 19.0843 6.90626 18.9749 6.90626 18.7187V18.7062C6.90626 18.4843 7.10314 18.3218 7.40939 18.3218C7.75001 18.3218 8.15314 18.4343 8.41251 18.578C8.41251 18.578 8.48751 18.628 8.51564 18.553C8.53126 18.5124 8.66251 18.1593 8.67501 18.1218C8.69064 18.0812 8.66251 18.0499 8.63751 18.0343C8.34064 17.853 7.93126 17.7312 7.50626 17.7312H7.42814C6.70626 17.7312 6.20001 18.1687 6.20001 18.7937V18.8062C6.20001 19.4655 6.75626 19.6812 7.27814 19.8312L7.36251 19.8562C7.74376 19.9718 8.07189 20.0749 8.07189 20.3405V20.353C8.07189 20.5968 7.85939 20.7812 7.51564 20.7812C7.38126 20.7812 6.95626 20.778 6.49689 20.4874C6.44064 20.4562 6.40939 20.4312 6.36564 20.4062C6.34376 20.3905 6.28751 20.3687 6.26251 20.4405L6.11251 20.8687ZM17.6844 20.8687C17.6594 20.9312 17.6938 20.9437 17.7 20.9562C17.7719 21.0093 17.8469 21.0468 17.9188 21.0905C18.3125 21.2999 18.6813 21.3593 19.0719 21.3593C19.8625 21.3593 20.3531 20.9374 20.3531 20.2624V20.2499C20.3531 19.6249 19.8 19.3968 19.2781 19.2343L19.2094 19.2124C18.8188 19.0843 18.4781 18.9749 18.4781 18.7187V18.7062C18.4781 18.4843 18.675 18.3218 18.9813 18.3218C19.3219 18.3218 19.725 18.4343 19.9844 18.578C19.9844 18.578 20.0594 18.628 20.0875 18.553C20.1031 18.5124 20.2344 18.1593 20.2469 18.1218C20.2625 18.0812 20.2344 18.0499 20.2094 18.0343C19.9125 17.853 19.5031 17.7312 19.0781 17.7312H19C18.2781 17.7312 17.7719 18.1687 17.7719 18.7937V18.8062C17.7719 19.4655 18.3281 19.6812 18.85 19.8312L18.9344 19.8562C19.3156 19.9718 19.6438 20.0749 19.6438 20.3405V20.353C19.6438 20.5968 19.4313 20.7812 19.0875 20.7812C18.9531 20.7812 18.5281 20.778 18.0688 20.4874C18.0125 20.4562 17.9813 20.4312 17.9375 20.4062C17.9219 20.3968 17.8563 20.3718 17.8344 20.4405L17.6844 20.8687ZM25.5813 19.5437C25.5813 19.9249 25.5094 20.228 25.3688 20.4405C25.2313 20.6499 25.0188 20.753 24.7281 20.753C24.4344 20.753 24.225 20.6499 24.0875 20.4405C23.95 20.228 23.8781 19.9249 23.8781 19.5437C23.8781 19.1624 23.9469 18.8624 24.0875 18.6499C24.225 18.4405 24.4344 18.3405 24.7281 18.3405C25.0219 18.3405 25.2313 18.4405 25.3719 18.6499C25.5094 18.8593 25.5813 19.1593 25.5813 19.5437ZM26.2406 18.8343C26.175 18.6155 26.075 18.4218 25.9406 18.2624C25.8034 18.0973 25.6303 17.9658 25.4344 17.878C25.2344 17.7843 24.9938 17.7374 24.7281 17.7374C24.4594 17.7374 24.2219 17.7843 24.0219 17.878C23.8188 17.9718 23.65 18.103 23.5156 18.2624C23.3813 18.4249 23.2813 18.6155 23.2156 18.8343C23.15 19.053 23.1188 19.2905 23.1188 19.5437C23.1188 19.7968 23.15 20.0343 23.2156 20.253C23.2813 20.4718 23.3813 20.6655 23.5156 20.8249C23.65 20.9874 23.8219 21.1155 24.0219 21.2062C24.225 21.2968 24.4625 21.3437 24.7281 21.3437C24.9969 21.3437 25.2344 21.2968 25.4344 21.2062C25.6344 21.1155 25.8063 20.9843 25.9406 20.8249C26.075 20.6655 26.175 20.4718 26.2406 20.253C26.3063 20.0343 26.3375 19.7968 26.3375 19.5437C26.3375 19.2905 26.3063 19.0499 26.2406 18.8343ZM31.6594 20.6499C31.6375 20.5843 31.575 20.6093 31.575 20.6093C31.4781 20.6468 31.3781 20.6812 31.2688 20.6968C31.1594 20.7124 31.0375 20.7218 30.9063 20.7218C30.5875 20.7218 30.3344 20.628 30.15 20.4405C29.9688 20.253 29.8656 19.9499 29.8656 19.5374C29.8656 19.1624 29.9563 18.8812 30.1188 18.6687C30.2781 18.4562 30.525 18.3468 30.85 18.3468C31.1219 18.3468 31.3313 18.378 31.5469 18.4468C31.5469 18.4468 31.6 18.4687 31.625 18.3999C31.6813 18.2405 31.725 18.1249 31.7875 17.9499C31.8063 17.8999 31.7625 17.878 31.7469 17.8718C31.6625 17.8374 31.4594 17.7843 31.3063 17.7624C31.1625 17.7405 30.9969 17.728 30.8125 17.728C30.5344 17.728 30.2875 17.7749 30.0781 17.8687C29.8688 17.9624 29.6875 18.0905 29.5469 18.253C29.4025 18.4203 29.2931 18.6147 29.225 18.8249C29.1531 19.0437 29.1188 19.2812 29.1188 19.5343C29.1188 20.0812 29.2656 20.5249 29.5594 20.8468C29.85 21.1718 30.2906 21.3374 30.8625 21.3374C31.2 21.3374 31.5469 21.2687 31.7969 21.1718C31.7969 21.1718 31.8438 21.1499 31.825 21.0937L31.6594 20.6499ZM32.8156 19.1749C32.8469 18.9624 32.9063 18.7843 32.9969 18.6468C33.1344 18.4374 33.3406 18.3218 33.6344 18.3218C33.9281 18.3218 34.1219 18.4374 34.2594 18.6468C34.3531 18.7843 34.3906 18.9687 34.4063 19.1749H32.8156ZM35.0344 18.7093C34.9781 18.4968 34.8406 18.2843 34.7469 18.1874C34.6031 18.0312 34.4625 17.9249 34.3219 17.8655C34.1192 17.7799 33.9013 17.7363 33.6813 17.7374C33.4031 17.7374 33.15 17.7843 32.9438 17.8812C32.7375 17.978 32.5656 18.1093 32.4281 18.2749C32.2938 18.4374 32.1906 18.6343 32.125 18.853C32.0594 19.0718 32.0281 19.3124 32.0281 19.5655C32.0281 19.8218 32.0625 20.0624 32.1281 20.278C32.1969 20.4968 32.3063 20.6874 32.4531 20.8468C32.6 21.0062 32.7875 21.1312 33.0156 21.2187C33.2406 21.3062 33.5125 21.3499 33.825 21.3499C34.4688 21.3468 34.8094 21.203 34.95 21.128C34.975 21.1155 34.9969 21.0905 34.9688 21.0218L34.8219 20.6124C34.8 20.553 34.7375 20.5749 34.7375 20.5749C34.5781 20.6343 34.35 20.7405 33.8219 20.7405C33.475 20.7405 33.2188 20.6374 33.0594 20.478C32.8938 20.3155 32.8125 20.0749 32.8 19.7343L35.0344 19.7374C35.0344 19.7374 35.0938 19.7374 35.1 19.678C35.1031 19.6468 35.1781 19.2124 35.0344 18.7093ZM14.9281 19.1749C14.9594 18.9624 15.0188 18.7843 15.1094 18.6468C15.2469 18.4374 15.4531 18.3218 15.7469 18.3218C16.0406 18.3218 16.2344 18.4374 16.3719 18.6468C16.4625 18.7843 16.5031 18.9687 16.5188 19.1749H14.9281ZM17.15 18.7093C17.0938 18.4968 16.9563 18.2843 16.8656 18.1874C16.7219 18.0312 16.5813 17.9249 16.4406 17.8655C16.238 17.7799 16.02 17.7363 15.8 17.7374C15.5219 17.7374 15.2688 17.7843 15.0625 17.8812C14.8563 17.978 14.6844 18.1093 14.5469 18.2749C14.4125 18.4374 14.3094 18.6343 14.2438 18.853C14.1781 19.0718 14.1469 19.3124 14.1469 19.5655C14.1469 19.8218 14.1813 20.0624 14.2469 20.278C14.3156 20.4968 14.425 20.6874 14.5719 20.8468C14.7188 21.0062 14.9063 21.1312 15.1344 21.2187C15.3594 21.3062 15.6313 21.3499 15.9438 21.3499C16.5875 21.3468 16.9281 21.203 17.0688 21.128C17.0938 21.1155 17.1156 21.0905 17.0875 21.0218L16.9406 20.6124C16.9188 20.553 16.8563 20.5749 16.8563 20.5749C16.6969 20.6343 16.4688 20.7405 15.9406 20.7405C15.5938 20.7405 15.3375 20.6374 15.1781 20.478C15.0125 20.3155 14.9313 20.0749 14.9188 19.7343L17.1531 19.7374C17.1531 19.7374 17.2125 19.7374 17.2188 19.678C17.2188 19.6468 17.2938 19.2124 17.15 18.7093ZM10.1 20.6374C10.0125 20.5687 10 20.5499 9.97189 20.5062C9.92814 20.4374 9.90626 20.3405 9.90626 20.2155C9.90626 20.0187 9.97189 19.878 10.1063 19.7843C10.1031 19.7843 10.2969 19.6155 10.7531 19.6218C11.0719 19.6249 11.3594 19.6749 11.3594 19.6749V20.6905C11.3594 20.6905 11.075 20.7499 10.7563 20.7718C10.3 20.7968 10.1 20.6374 10.1 20.6374ZM10.9906 19.0687C10.9 19.0624 10.7813 19.0593 10.6406 19.0593C10.45 19.0593 10.2656 19.0843 10.0906 19.1312C9.91564 19.178 9.75939 19.2499 9.62501 19.3468C9.49064 19.4437 9.38126 19.5687 9.30001 19.7155C9.22189 19.8624 9.18126 20.0374 9.18126 20.2312C9.18126 20.428 9.21564 20.5999 9.28439 20.7405C9.35314 20.8812 9.45001 20.9999 9.57501 21.0905C9.70001 21.1812 9.85314 21.2468 10.0313 21.2874C10.2063 21.328 10.4063 21.3468 10.6219 21.3468C10.85 21.3468 11.0781 21.328 11.3 21.2905C11.5188 21.253 11.7875 21.1999 11.8625 21.1812C11.9375 21.1624 12.0188 21.1405 12.0188 21.1405C12.075 21.128 12.0688 21.0687 12.0688 21.0687V19.0249C12.0688 18.578 11.95 18.2437 11.7125 18.0405C11.4781 17.8343 11.1344 17.7312 10.6875 17.7312C10.5188 17.7312 10.25 17.753 10.0906 17.7874C10.0906 17.7874 9.60314 17.8812 9.40314 18.0374C9.40314 18.0374 9.35939 18.0655 9.38439 18.1249L9.54376 18.5499C9.56251 18.6062 9.61564 18.5874 9.61564 18.5874C9.61564 18.5874 9.63126 18.5812 9.65314 18.5687C10.0844 18.3343 10.625 18.3405 10.625 18.3405C10.8656 18.3405 11.0531 18.3874 11.1781 18.4843C11.3 18.578 11.3625 18.7187 11.3625 19.0155V19.1093C11.1656 19.0843 10.9906 19.0687 10.9906 19.0687ZM29.0031 17.9187C29.0093 17.9033 29.0092 17.8862 29.0027 17.8709C28.9963 17.8557 28.9841 17.8436 28.9688 17.8374C28.9313 17.8218 28.7406 17.7812 28.5938 17.7718C28.3125 17.7562 28.1563 17.803 28.0188 17.8655C27.8813 17.928 27.7281 18.028 27.6406 18.1437V17.8718C27.6406 17.8343 27.6125 17.803 27.575 17.803H27.0031C26.9656 17.803 26.9375 17.8343 26.9375 17.8718V21.203C26.9375 21.2405 26.9688 21.2718 27.0063 21.2718H27.5938C27.6313 21.2718 27.6625 21.2405 27.6625 21.203V19.5374C27.6625 19.3155 27.6875 19.0905 27.7375 18.9499C27.7844 18.8124 27.8531 18.6999 27.9344 18.6218C28.0156 18.5437 28.1094 18.4874 28.2094 18.4562C28.3125 18.4249 28.4281 18.4124 28.5094 18.4124C28.625 18.4124 28.7563 18.4437 28.7563 18.4437C28.8 18.4499 28.8219 18.4218 28.8375 18.3843C28.8719 18.2843 28.9813 17.978 29.0031 17.9187Z" fill="white"/>
<path d="M23.4937 16.3748C23.4219 16.3529 23.3563 16.3373 23.2719 16.3217C23.1875 16.3061 23.0844 16.2998 22.9687 16.2998C22.5656 16.2998 22.2469 16.4154 22.0219 16.6404C21.8 16.8654 21.65 17.2061 21.5719 17.6529L21.5438 17.8029H21.0375C21.0375 17.8029 20.975 17.7998 20.9625 17.8686L20.8781 18.3342C20.8719 18.3779 20.8906 18.4061 20.95 18.4061H21.4438L20.9437 21.1998C20.9062 21.4248 20.8594 21.6092 20.8094 21.7498C20.7594 21.8873 20.7125 21.9904 20.6531 22.0686C20.5969 22.1404 20.5438 22.1936 20.45 22.2248C20.3719 22.2498 20.2844 22.2623 20.1875 22.2623C20.1344 22.2623 20.0625 22.2529 20.0094 22.2436C19.9562 22.2342 19.9281 22.2217 19.8875 22.2061C19.8875 22.2061 19.8313 22.1842 19.8063 22.2404C19.7875 22.2873 19.6562 22.6498 19.6406 22.6936C19.625 22.7373 19.6469 22.7717 19.675 22.7842C19.7406 22.8061 19.7906 22.8217 19.8781 22.8436C20.0031 22.8717 20.1063 22.8748 20.2063 22.8748C20.4125 22.8748 20.6 22.8467 20.7531 22.7904C20.9094 22.7342 21.0438 22.6342 21.1656 22.5029C21.2969 22.3592 21.3781 22.2092 21.4563 22.0029C21.5344 21.7998 21.6 21.5467 21.6531 21.2529L22.1563 18.4061H22.8906C22.8906 18.4061 22.9531 18.4092 22.9656 18.3404L23.05 17.8748C23.0563 17.8311 23.0375 17.8029 22.9781 17.8029H22.2625C22.2656 17.7873 22.3 17.5342 22.3813 17.2998C22.4156 17.1998 22.4813 17.1186 22.5375 17.0623C22.5938 17.0061 22.6563 16.9686 22.725 16.9467C22.7969 16.9248 22.875 16.9123 22.9656 16.9123C23.0312 16.9123 23.1 16.9186 23.15 16.9311C23.2188 16.9467 23.2469 16.9529 23.2656 16.9592C23.3375 16.9811 23.35 16.9592 23.3625 16.9248L23.5344 16.4561C23.5531 16.4029 23.5094 16.3811 23.4937 16.3748ZM13.5187 21.2029C13.5187 21.2404 13.4906 21.2717 13.4531 21.2717H12.8594C12.8219 21.2717 12.7969 21.2404 12.7969 21.2029V16.4373C12.7969 16.3998 12.8219 16.3686 12.8594 16.3686H13.4531C13.4906 16.3686 13.5187 16.3998 13.5187 16.4373V21.2029Z" fill="white"/>
</svg>
