<svg width="40" height="39" viewBox="0 0 40 39" fill="none" xmlns="http://www.w3.org/2000/svg">
<g clip-path="url(#clip0_200_229810)">
<path d="M33.3594 0H6.64062C2.97311 0 0 2.96835 0 6.63V32.3076C0 35.9692 2.97311 38.9376 6.64062 38.9376H33.3594C37.0269 38.9376 40 35.9692 40 32.3076V6.63C40 2.96835 37.0269 0 33.3594 0Z" fill="#00005B"/>
<path d="M16.0692 23.2958H9.87061L8.60936 27.2147C8.59319 27.2819 8.55536 27.3419 8.50169 27.3855C8.44802 27.4291 8.38149 27.4539 8.31233 27.456L5.14795 27.4559C4.96879 27.4559 4.90618 27.3576 4.96014 27.161L10.3269 11.7936L10.3805 11.6322L10.3983 11.5769L10.4342 11.4615C10.452 11.4019 10.4698 11.3387 10.4878 11.2702C10.5581 10.9128 10.594 10.5495 10.5951 10.1853C10.5915 10.1598 10.5939 10.1338 10.602 10.1094C10.6102 10.085 10.6239 10.0629 10.6421 10.0447C10.6604 10.0265 10.6826 10.0128 10.707 10.0046C10.7314 9.99648 10.7574 9.99412 10.783 9.99774H15.0495C15.1745 9.99774 15.2461 10.0424 15.2642 10.1317L21.3553 27.188C21.4089 27.3667 21.3553 27.456 21.1944 27.4559H17.7059C17.646 27.4624 17.5858 27.447 17.5365 27.4125C17.4871 27.378 17.452 27.3268 17.4376 27.2683L16.0692 23.2958ZM10.8367 19.9916H15.0764L15.0159 19.7924L14.9189 19.4769L14.7769 19.0252L14.5042 18.1723L14.2445 17.3527L13.7614 15.8256C13.6279 15.4041 13.4998 14.9808 13.377 14.5561L13.2398 14.0731L13.0917 13.5438L12.9564 13.0528H12.9295C12.7952 13.6959 12.6317 14.3325 12.4395 14.9607L12.2583 15.5415L11.8223 16.9455L11.6014 17.6608C11.5615 17.7899 11.5217 17.9177 11.4819 18.0439L11.3631 18.418L11.245 18.7834L11.1275 19.1397L11.0106 19.4871C10.9524 19.6587 10.8944 19.8268 10.8367 19.9916ZM31.2301 21.7706H25.944C26.0087 22.2928 26.1824 22.7956 26.4539 23.2465C26.7539 23.6931 27.1783 24.0423 27.6747 24.2512C28.3474 24.5419 29.0751 24.6843 29.808 24.6686C30.3894 24.6574 30.9687 24.5939 31.5387 24.4789C32.0486 24.4103 32.5482 24.2803 33.0267 24.0917C33.1162 24.0205 33.161 24.0651 33.1611 24.2256V26.7707C33.1655 26.8401 33.1515 26.9094 33.1206 26.9716C33.09 27.0203 33.0487 27.0615 33 27.0922C32.4691 27.327 31.9105 27.4931 31.3375 27.5867C30.5591 27.7326 29.768 27.7999 28.9761 27.7875C27.7455 27.7875 26.7081 27.6032 25.864 27.2345L25.7828 27.1981C24.9713 26.8414 24.2546 26.3001 23.69 25.6176C23.1625 24.9745 22.7701 24.2319 22.5361 23.4342C22.3045 22.6468 22.1872 21.8303 22.1875 21.0096C22.1849 20.1135 22.3253 19.2227 22.6034 18.3707C22.8712 17.5397 23.2946 16.7669 23.8511 16.0936C24.4002 15.4282 25.0866 14.889 25.8636 14.5129C26.6506 14.1291 27.5809 13.9913 28.6542 13.9913C29.5443 13.9691 30.4285 14.1429 31.2437 14.5004C31.9292 14.7922 32.5326 15.2472 33.0012 15.8256C33.441 16.3919 33.7771 17.0313 33.994 17.7143C34.2053 18.3725 34.3139 19.0592 34.3161 19.7504C34.3161 20.1435 34.3027 20.5008 34.2759 20.8221L34.252 21.0973L34.227 21.3584L34.2122 21.4907L34.2087 21.5187C34.2018 21.5777 34.1733 21.6321 34.1288 21.6716C34.0843 21.7112 34.0269 21.733 33.9673 21.733L33.8937 21.7346L33.802 21.7392L33.7306 21.7444L33.5637 21.7586L33.4172 21.7731C33.3773 21.7773 33.3359 21.7812 33.293 21.7848L33.16 21.7952L33.018 21.8046L32.8672 21.8124L32.7075 21.8191L32.6242 21.8219L32.4512 21.8266C32.2801 21.8308 32.1048 21.8202 31.925 21.8071L31.6522 21.7871C31.5118 21.7769 31.3709 21.7714 31.2301 21.7706ZM25.9442 19.33H29.5983L29.9095 19.3279L30.1211 19.325L30.2581 19.3219L30.4119 19.3166C30.5495 19.3028 30.6823 19.2589 30.8009 19.1879V19.0272C30.7957 18.8176 30.7595 18.61 30.6937 18.411C30.549 17.9539 30.2579 17.5569 29.8653 17.281C29.4726 17.0051 29.0001 16.8655 28.5203 16.8837C28.0687 16.8565 27.6189 16.9611 27.2258 17.1847C26.8327 17.4083 26.5132 17.7412 26.3064 18.143C26.1225 18.5167 26.0002 18.9174 25.9442 19.33Z" fill="#9999FF"/>
</g>
<defs>
<clipPath id="clip0_200_229810">
<rect width="40" height="39" fill="white"/>
</clipPath>
</defs>
</svg>
