<svg width="40" height="40" viewBox="0 0 40 40" fill="none" xmlns="http://www.w3.org/2000/svg">
<g clip-path="url(#clip0_200_229799)">
<path d="M5.87918 35.6633L2.7373 0.422363H37.2623L34.1173 35.658L19.9789 39.5777L5.87918 35.6633Z" fill="#1572B6"/>
<path d="M20 36.5818L31.4247 33.4143L34.1125 3.30371H20V36.5818Z" fill="#33A9DC"/>
<path d="M20 16.0714H25.7194L26.1144 11.6454H20V7.32324H30.8381L30.7344 8.48293L29.6719 20.3936H20V16.0714Z" fill="white"/>
<path d="M20.0263 27.2964L20.0072 27.302L15.1938 26.0024L14.886 22.5552H10.5479L11.1532 29.3417L20.0066 31.7989L20.0263 31.7933V27.2964Z" fill="#EBEBEB"/>
<path d="M25.352 20.2109L24.8314 25.9991L20.0107 27.3003V31.7972L28.8714 29.3416L28.9364 28.6112L29.6882 20.2109H25.352Z" fill="white"/>
<path d="M20.0154 7.32324V11.6454H9.57535L9.48879 10.6742L9.29191 8.48293L9.18848 7.32324H20.0154ZM20.0007 16.072V20.3942H15.2479L15.1613 19.4229L14.9641 17.2317L14.861 16.072H20.0007Z" fill="#EBEBEB"/>
</g>
<defs>
<clipPath id="clip0_200_229799">
<rect width="40" height="40" fill="white"/>
</clipPath>
</defs>
</svg>
