<svg width="40" height="36" viewBox="0 0 40 36" fill="none" xmlns="http://www.w3.org/2000/svg">
<g clip-path="url(#clip0_200_229727)">
<path d="M20 0L8.72734 1.18366L0 12.8183L20 35.9476L40 12.8183L31.2728 1.18366L20 0Z" fill="#FDB300"/>
<path d="M0 12.8184L20 35.9474L8.10094 12.8184H0ZM31.8989 12.8184L20 35.9474L39.9998 12.8184H31.8989Z" fill="#EB6C00"/>
<path d="M8.10059 12.8184L19.9996 35.9474L31.8987 12.8184H8.10059Z" fill="#FDAD00"/>
<path d="M8.72699 1.18366L8.10059 12.8183L19.9996 0L8.72699 1.18366ZM31.8986 12.8185L31.2723 1.18366L19.9996 0.000155172L31.8986 12.8185Z" fill="#FDD231"/>
<path d="M31.8991 12.8184H39.9998L31.2727 1.18359L31.8991 12.8184ZM0 12.8184H8.10094L8.72734 1.18359L0 12.8184Z" fill="#FDAD00"/>
<path d="M19.9996 0L8.10059 12.8183H31.8987L19.9996 0Z" fill="#FEEEB7"/>
</g>
<defs>
<clipPath id="clip0_200_229727">
<rect width="40" height="36" fill="white"/>
</clipPath>
</defs>
</svg>
