<svg width="40" height="45" viewBox="0 0 40 45" fill="none" xmlns="http://www.w3.org/2000/svg">
<g clip-path="url(#clip0_200_229671)">
<mask id="mask0_200_229671" style="mask-type:luminance" maskUnits="userSpaceOnUse" x="0" y="0" width="40" height="45">
<path d="M40 0H0V45H40V0Z" fill="white"/>
</mask>
<g mask="url(#mask0_200_229671)">
<path fill-rule="evenodd" clip-rule="evenodd" d="M35.7841 9.10693C37.8166 9.10693 39.4706 10.7462 39.4706 12.7605C39.4706 14.7748 37.8166 16.4141 35.7841 16.4141C33.7517 16.4141 32.0977 14.7748 32.0977 12.7605C32.0977 10.7462 33.7517 9.10693 35.7841 9.10693Z" fill="#4184F4"/>
<path fill-rule="evenodd" clip-rule="evenodd" d="M35.7841 28.3608C37.8166 28.3608 39.4706 30.0001 39.4706 32.0144C39.4706 34.0287 37.8166 35.668 35.7841 35.668C33.7517 35.668 32.0977 34.0287 32.0977 32.0144C32.0977 30.0001 33.7517 28.3608 35.7841 28.3608Z" fill="#4184F4"/>
<path fill-rule="evenodd" clip-rule="evenodd" d="M35.7841 18.7285C37.8166 18.7285 39.4706 20.3678 39.4706 22.3821C39.4706 24.3964 37.8166 26.0357 35.7841 26.0357C33.7517 26.0357 32.0977 24.3964 32.0977 22.3821C32.0977 20.3678 33.7517 18.7285 35.7841 18.7285Z" fill="#4184F4"/>
<path fill-rule="evenodd" clip-rule="evenodd" d="M27.5253 4.68213C29.2982 4.68213 30.7469 6.10713 30.7469 7.87499C30.7469 9.64284 29.309 11.0571 27.5253 11.0571C25.7415 11.0571 24.3145 9.63213 24.3145 7.87499C24.3145 6.11784 25.7523 4.68213 27.5253 4.68213Z" fill="#33A852"/>
<path fill-rule="evenodd" clip-rule="evenodd" d="M27.5136 33.7178C29.2866 33.7178 30.7244 35.1428 30.7244 36.9106C30.7244 38.6785 29.2866 40.0928 27.5136 40.0928C25.7406 40.0928 24.292 38.6678 24.292 36.9106C24.292 35.1535 25.7298 33.7178 27.5136 33.7178Z" fill="#33A852"/>
<path fill-rule="evenodd" clip-rule="evenodd" d="M27.5136 24.0962C29.2866 24.0962 30.7244 25.5212 30.7244 27.289C30.7244 29.0569 29.2866 30.4819 27.5136 30.4819C25.7406 30.4819 24.292 29.0569 24.292 27.289C24.292 25.5212 25.7298 24.0962 27.5136 24.0962Z" fill="#33A852"/>
<path fill-rule="evenodd" clip-rule="evenodd" d="M27.5136 14.2822C29.2866 14.2822 30.7244 15.7072 30.7244 17.4751C30.7244 19.2429 29.2866 20.6572 27.5136 20.6572C25.7406 20.6572 24.292 19.2322 24.292 17.4751C24.292 15.7179 25.7298 14.2822 27.5136 14.2822Z" fill="#33A852"/>
<path fill-rule="evenodd" clip-rule="evenodd" d="M19.2437 0.535645C20.7356 0.535645 21.9464 1.73564 21.9464 3.21422C21.9464 4.69279 20.7356 5.89279 19.2437 5.89279C17.7518 5.89279 16.541 4.69279 16.541 3.21422C16.541 1.73564 17.7518 0.535645 19.2437 0.535645Z" fill="#FBBB03"/>
<path fill-rule="evenodd" clip-rule="evenodd" d="M19.2437 38.8501C20.7356 38.8501 21.9464 40.0501 21.9464 41.5287C21.9464 43.0072 20.7356 44.2072 19.2437 44.2072C17.7518 44.2072 16.541 43.0072 16.541 41.5287C16.541 40.0501 17.7518 38.8501 19.2437 38.8501Z" fill="#FBBB03"/>
<path fill-rule="evenodd" clip-rule="evenodd" d="M19.2437 29.2393C20.7356 29.2393 21.9464 30.4393 21.9464 31.9178C21.9464 33.3964 20.7356 34.5964 19.2437 34.5964C17.7518 34.5964 16.541 33.3964 16.541 31.9178C16.541 30.4393 17.7518 29.2393 19.2437 29.2393Z" fill="#FBBB03"/>
<path fill-rule="evenodd" clip-rule="evenodd" d="M19.2437 19.6821C20.7356 19.6821 21.9464 20.8821 21.9464 22.3607C21.9464 23.8393 20.7356 25.0393 19.2437 25.0393C17.7518 25.0393 16.541 23.8393 16.541 22.3607C16.541 20.8821 17.7518 19.6821 19.2437 19.6821Z" fill="#FBBB03"/>
<path fill-rule="evenodd" clip-rule="evenodd" d="M19.2437 10.1035C20.7356 10.1035 21.9464 11.3035 21.9464 12.7821C21.9464 14.2607 20.7356 15.4607 19.2437 15.4607C17.7518 15.4607 16.541 14.2607 16.541 12.7821C16.541 11.3035 17.7518 10.1035 19.2437 10.1035Z" fill="#FBBB03"/>
<path fill-rule="evenodd" clip-rule="evenodd" d="M10.8763 5.64648C12.1736 5.64648 13.2331 6.68577 13.2331 7.9822C13.2331 9.27863 12.1844 10.3179 10.8763 10.3179C9.56818 10.3179 8.51953 9.27863 8.51953 7.9822C8.51953 6.68577 9.56818 5.64648 10.8763 5.64648Z" fill="#E94234"/>
<path fill-rule="evenodd" clip-rule="evenodd" d="M10.8763 34.4355C12.1736 34.4355 13.2331 35.4748 13.2331 36.7713C13.2331 38.0677 12.1844 39.107 10.8763 39.107C9.56818 39.107 8.51953 38.0677 8.51953 36.7713C8.51953 35.4748 9.56818 34.4355 10.8763 34.4355Z" fill="#E94234"/>
<path fill-rule="evenodd" clip-rule="evenodd" d="M10.8763 24.9321C12.1736 24.9321 13.2331 25.9714 13.2331 27.2678C13.2331 28.5643 12.1844 29.6036 10.8763 29.6036C9.56818 29.6036 8.51953 28.5643 8.51953 27.2678C8.51953 25.9714 9.56818 24.9321 10.8763 24.9321Z" fill="#E94234"/>
<path fill-rule="evenodd" clip-rule="evenodd" d="M10.8763 15.1499C12.1736 15.1499 13.2331 16.1892 13.2331 17.4856C13.2331 18.782 12.1844 19.8213 10.8763 19.8213C9.56818 19.8213 8.51953 18.782 8.51953 17.4856C8.51953 16.1892 9.56818 15.1499 10.8763 15.1499Z" fill="#E94234"/>
<path fill-rule="evenodd" clip-rule="evenodd" d="M2.49777 10.7783C3.57885 10.7783 4.45453 11.6462 4.45453 12.7176C4.45453 13.789 3.57885 14.6569 2.49777 14.6569C1.41669 14.6569 0.541016 13.789 0.541016 12.7176C0.541016 11.6462 1.41669 10.7783 2.49777 10.7783Z" fill="#4184F4"/>
<path fill-rule="evenodd" clip-rule="evenodd" d="M2.49777 30.0645C3.57885 30.0645 4.45453 30.9323 4.45453 32.0037C4.45453 33.0752 3.57885 33.943 2.49777 33.943C1.41669 33.943 0.541016 33.0752 0.541016 32.0037C0.541016 30.9323 1.41669 30.0645 2.49777 30.0645Z" fill="#4184F4"/>
<path fill-rule="evenodd" clip-rule="evenodd" d="M2.49777 20.4321C3.57885 20.4321 4.45453 21.3 4.45453 22.3714C4.45453 23.4428 3.57885 24.3107 2.49777 24.3107C1.41669 24.3107 0.541016 23.4428 0.541016 22.3714C0.541016 21.3 1.41669 20.4321 2.49777 20.4321Z" fill="#4184F4"/>
</g>
</g>
<defs>
<clipPath id="clip0_200_229671">
<rect width="40" height="45" fill="white"/>
</clipPath>
</defs>
</svg>
