<svg width="40" height="52" viewBox="0 0 40 52" fill="none" xmlns="http://www.w3.org/2000/svg">
<g clip-path="url(#clip0_200_229746)">
<path d="M8.02595 0H32.1306C36.627 0 40.1633 3.56625 39.9942 7.94402V34.5239C39.9942 38.8947 36.4647 42.461 32.1239 42.461H26.8228L29.7167 51.8572L15.7408 42.461H8.03267C3.53626 42.461 9.55767e-06 38.8947 9.55767e-06 34.3602V7.9508C-0.00670919 3.56625 3.5297 0 8.02595 0ZM17.3906 29.1711C16.5725 28.7141 15.9166 28.0527 15.423 27.1799C14.9294 26.3071 14.6859 25.257 14.6859 24.0364V9.8737C14.6859 9.65545 14.6386 9.48496 14.5372 9.37591C14.4425 9.25994 14.2803 9.20542 14.0505 9.20542H10.46C10.3789 9.20542 10.2978 9.21913 10.2234 9.25316C10.1491 9.2872 10.0814 9.3351 10.0341 9.40318C9.91858 9.53427 9.85798 9.70541 9.86501 9.88063V23.9819C9.86501 26.2389 10.3249 28.1277 11.2444 29.6621C12.1639 31.1894 13.3945 32.3282 14.9497 33.0783C16.4981 33.8284 18.2289 34.1965 20.1356 34.1965C22.0492 34.1965 23.7802 33.8284 25.3286 33.0986C26.877 32.3691 28.1075 31.244 29.027 29.7166C29.9466 28.189 30.4064 26.2934 30.4064 24.0297V9.88725C30.4073 9.79643 30.3912 9.70625 30.3591 9.62142C30.3253 9.53948 30.2778 9.4577 30.217 9.3964C30.0886 9.26687 29.9195 9.19864 29.7033 9.19864H26.2819C26.0791 9.19864 25.91 9.2601 25.7883 9.38962C25.6599 9.51915 25.5991 9.68272 25.5991 9.88741V24.0364C25.5991 25.1752 25.3556 26.1911 24.8688 27.0709C24.3819 27.9572 23.7261 28.6392 22.8944 29.1233C22.0627 29.6074 21.1431 29.8461 20.1425 29.8461C19.1216 29.8529 18.2088 29.6279 17.3906 29.1711Z" fill="#315CFD"/>
</g>
<defs>
<clipPath id="clip0_200_229746">
<rect width="40" height="52" fill="white"/>
</clipPath>
</defs>
</svg>
