<svg width="40" height="39" viewBox="0 0 40 39" fill="none" xmlns="http://www.w3.org/2000/svg">
<g clip-path="url(#clip0_200_229817)">
<path d="M33.3594 0H6.64062C2.97311 0 0 2.96835 0 6.63V32.3076C0 35.9692 2.97311 38.9376 6.64062 38.9376H33.3594C37.0269 38.9376 40 35.9692 40 32.3076V6.63C40 2.96835 37.0269 0 33.3594 0Z" fill="#00005B"/>
<path d="M16.1737 23.2961H9.97526L8.70213 27.2012C8.68594 27.2683 8.64812 27.3283 8.59449 27.3719C8.54085 27.4154 8.47437 27.4402 8.40526 27.4424H5.24073C5.06156 27.4424 4.99895 27.3441 5.05291 27.1476L10.442 11.794L10.5134 11.583C10.5432 11.4936 10.5731 11.3986 10.6029 11.2844C10.6732 10.927 10.7092 10.5637 10.7103 10.1994C10.7066 10.1739 10.709 10.148 10.7171 10.1236C10.7253 10.0992 10.739 10.077 10.7573 10.0588C10.7755 10.0406 10.7977 10.0269 10.8221 10.0188C10.8466 10.0106 10.8726 10.0083 10.8981 10.0119H15.1645C15.2895 10.0119 15.361 10.0566 15.3792 10.1459L21.4479 27.1744C21.5016 27.3531 21.4479 27.4424 21.287 27.4422H17.7987C17.7388 27.4488 17.6785 27.4334 17.6291 27.3989C17.5797 27.3644 17.5446 27.3132 17.5303 27.2547L16.1737 23.2961ZM10.9518 19.9918H15.1913L15.131 19.7926L15.0339 19.4772L14.892 19.0254L14.6193 18.1726L13.8765 15.8259C13.743 15.4043 13.6149 14.9811 13.4921 14.5563L13.3549 14.0734L13.2424 13.6729L13.1042 13.1722L13.0715 13.0531H13.0448C12.9104 13.6962 12.7469 14.3328 12.5546 14.961L12.3734 15.5418L11.9374 16.9458L11.6567 17.8537L11.5374 18.2323L11.419 18.602L11.3012 18.9629C11.1879 19.3069 11.0715 19.6499 10.9518 19.9918ZM23.3262 27.1873V17.3127C23.3263 17.2453 23.3261 17.1762 23.3256 17.1052L23.3237 16.8868L23.3204 16.658L23.3129 16.2948L23.304 15.9777C23.2992 15.8245 23.2934 15.6714 23.2868 15.5184L23.2728 15.2231L23.2524 14.8568L23.2356 14.5885L23.2256 14.4515L23.219 14.3723C23.2085 14.3456 23.2055 14.3165 23.2102 14.2882C23.2149 14.26 23.2272 14.2335 23.2457 14.2116C23.2677 14.1924 23.2932 14.1778 23.3209 14.1686C23.3485 14.1594 23.3777 14.1558 23.4068 14.1581H26.0854C26.1778 14.155 26.2697 14.1733 26.3539 14.2116C26.4262 14.2489 26.476 14.3188 26.4879 14.3991L26.6087 14.7609C26.6581 14.9381 26.6896 15.1199 26.7026 15.3034C27.2214 14.8497 27.8226 14.4996 28.4735 14.2721C29.1208 14.0483 29.8011 13.9351 30.486 13.9372C31.0194 13.9397 31.5491 14.0256 32.0559 14.1918C32.6409 14.3785 33.1744 14.6984 33.6144 15.1261C34.0545 15.5538 34.389 16.0777 34.5917 16.6566C34.8599 17.3442 34.9651 18.2328 34.9651 19.322V27.1873C34.9651 27.348 34.8935 27.4284 34.7504 27.4284L31.6154 27.4561C31.579 27.4614 31.5418 27.4581 31.5068 27.4465C31.4719 27.4349 31.4401 27.4153 31.414 27.3893C31.388 27.3633 31.3684 27.3316 31.3567 27.2967C31.3451 27.2618 31.3417 27.2247 31.347 27.1883V19.7259C31.3382 19.2261 31.228 18.7333 31.0231 18.2773C30.8791 17.9408 30.6416 17.6526 30.3387 17.4467C29.9965 17.2373 29.5994 17.1347 29.1984 17.152C28.7671 17.1458 28.339 17.2233 27.9373 17.3798C27.5701 17.5263 27.2334 17.7398 26.9445 18.0092V27.1873C26.9445 27.348 26.8729 27.4284 26.7298 27.4284H23.5681C23.5353 27.4331 23.5018 27.4301 23.4704 27.4196C23.4389 27.4092 23.4104 27.3915 23.3869 27.3682C23.3635 27.3448 23.3458 27.3163 23.3353 27.2849C23.3249 27.2535 23.3218 27.2201 23.3265 27.1873" fill="#9999FF"/>
</g>
<defs>
<clipPath id="clip0_200_229817">
<rect width="40" height="39" fill="white"/>
</clipPath>
</defs>
</svg>
