<svg width="40" height="39" viewBox="0 0 40 39" fill="none" xmlns="http://www.w3.org/2000/svg">
<g clip-path="url(#clip0_200_229760)">
<path d="M33.3594 0H6.64062C2.97311 0 0 2.96835 0 6.63V32.3076C0 35.9692 2.97311 38.9376 6.64062 38.9376H33.3594C37.0269 38.9376 40 35.9692 40 32.3076V6.63C40 2.96835 37.0269 0 33.3594 0Z" fill="#470137"/>
<path d="M21.0274 10.2398L16.0364 18.4646L21.3762 27.1983C21.4106 27.2594 21.4201 27.3312 21.4031 27.3992C21.3948 27.4282 21.377 27.4354 21.3496 27.4365L21.3193 27.436L21.2824 27.4351C21.2624 27.4351 21.2401 27.436 21.2153 27.4401H17.3653L17.2896 27.4388C17.0821 27.4333 16.9326 27.4037 16.8415 27.2518C16.4853 26.5589 16.1275 25.8668 15.7681 25.1756C15.4466 24.559 15.1164 23.9471 14.7774 23.3399L14.6278 23.0725C14.2224 22.3532 13.8244 21.6299 13.4337 20.9026H13.4068C13.0461 21.6223 12.6748 22.3367 12.2932 23.0457C11.9083 23.7602 11.5282 24.4701 11.1528 25.1756C10.7771 25.8814 10.3925 26.5825 9.99901 27.2786C9.93573 27.4206 9.83057 27.4502 9.68416 27.455L9.62323 27.456H5.94713L5.9312 27.4564L5.8787 27.4611C5.84948 27.4628 5.83198 27.4566 5.82635 27.4126C5.81634 27.3473 5.83069 27.2806 5.86666 27.2251L11.0454 18.7324L6.00073 10.2133C5.94719 10.1421 5.93823 10.0841 5.97385 10.0392C5.99365 10.0163 6.01852 9.99832 6.04648 9.98668C6.07443 9.97504 6.10472 9.97005 6.13495 9.97211H9.91838C10.0009 9.96765 10.0834 9.98139 10.1599 10.0124C10.224 10.0487 10.2792 10.0991 10.3209 10.1598C10.6429 10.8743 11.0007 11.5886 11.3943 12.3029C11.7849 13.0126 12.1829 13.7181 12.5884 14.4194C12.9876 15.1098 13.3591 15.8158 13.702 16.5358H13.7289C14.0802 15.816 14.4425 15.1015 14.8156 14.3927C15.182 13.6961 15.5577 12.995 15.9424 12.2895C16.3222 11.5931 16.6935 10.8921 17.056 10.1866C17.0767 10.1205 17.1135 10.0606 17.1634 10.0124C17.2297 9.97883 17.3041 9.96487 17.3781 9.97211H20.8932C20.9255 9.96406 20.9596 9.96672 20.9903 9.97966C21.021 9.99261 21.0466 10.0152 21.0633 10.0439C21.0801 10.0726 21.087 10.106 21.0831 10.1391C21.0792 10.1721 21.0647 10.203 21.0417 10.227L21.0274 10.2398ZM28.9134 27.7856L28.7284 27.7876C27.4933 27.8065 26.2695 27.5502 25.146 27.0376C24.0995 26.554 23.2246 25.7645 22.6371 24.7737C22.0447 23.7914 21.7408 22.5676 21.7254 21.1022L21.7248 20.9829C21.7147 19.7533 22.0295 18.5428 22.6373 17.4734C23.2456 16.4149 24.1324 15.5428 25.2017 14.9515L25.2937 14.9016C26.4562 14.2585 27.8605 13.937 29.5065 13.937L29.5784 13.9378L29.6606 13.9404L29.7528 13.9445L29.8553 13.9504L30.0274 13.9626L30.2224 13.9782L30.3651 13.9907V8.71288C30.3651 8.58797 30.4187 8.52547 30.526 8.52536H33.9071C33.929 8.52223 33.9513 8.52423 33.9722 8.5312C33.9932 8.53817 34.0122 8.54991 34.0279 8.5655C34.0435 8.5811 34.0552 8.60011 34.0622 8.62103C34.0692 8.64196 34.0712 8.66422 34.0681 8.68604V24.5193C34.0681 24.7852 34.0784 25.0714 34.099 25.3779L34.149 26.0729L34.1756 26.4749C34.1789 26.5306 34.1653 26.5859 34.1365 26.6337C34.1078 26.6816 34.0652 26.7196 34.0145 26.7429C33.1422 27.106 32.2337 27.3754 31.3043 27.5464C30.5153 27.6919 29.7156 27.7719 28.9134 27.7856ZM30.3651 24.4656V17.1519C30.2201 17.1126 30.072 17.0857 29.9224 17.0715C29.7396 17.0531 29.556 17.0441 29.3723 17.0447C28.7211 17.0381 28.0776 17.185 27.494 17.4734C26.9256 17.7557 26.4402 18.1803 26.0853 18.7058C25.731 19.2231 25.5478 19.8985 25.5357 20.7322L25.5351 20.8222C25.5221 21.4062 25.6176 21.9875 25.8168 22.5367C25.9791 22.9792 26.2355 23.3814 26.5684 23.7156C26.887 24.0229 27.2727 24.2522 27.6953 24.3853C28.1416 24.5295 28.608 24.6019 29.0771 24.5998C29.3274 24.5998 29.56 24.5908 29.7748 24.5728C29.9461 24.5599 30.116 24.5317 30.2823 24.4885L30.3651 24.4656Z" fill="#FF61F6"/>
</g>
<defs>
<clipPath id="clip0_200_229760">
<rect width="40" height="39" fill="white"/>
</clipPath>
</defs>
</svg>
