<svg width="40" height="40" viewBox="0 0 40 40" fill="none" xmlns="http://www.w3.org/2000/svg">
<g clip-path="url(#clip0_200_229664)">
<path d="M1.45466 30.0948C1.02357 30.775 0.600418 31.4602 0.185283 32.1502C-0.175967 32.7542 0.00465836 33.5402 0.608408 33.9033L8.88466 38.9814C9.48903 39.3439 10.2731 39.1617 10.6359 38.558C11.0245 37.8645 11.4273 37.179 11.844 36.502C15.1072 31.123 18.4287 31.727 24.3484 34.5689L32.565 38.4358C33.2287 38.7389 33.9547 38.4358 34.2556 37.8317L38.1834 28.9473C38.4843 28.3417 38.1834 27.5573 37.5775 27.2542C35.8262 26.468 32.3843 24.8355 29.3634 23.3252C18.1884 17.9442 8.70278 18.3073 1.45528 30.0948H1.45466Z" fill="url(#paint0_linear_200_229664)"/>
<path d="M38.5451 9.90532C38.9763 9.22517 39.3996 8.54002 39.8148 7.85001C40.1773 7.24595 39.9951 6.46001 39.3914 6.09688L31.1151 1.01876C30.511 0.65626 29.7267 0.838447 29.3638 1.4422C28.976 2.13606 28.5733 2.82153 28.156 3.49813C24.8926 8.8772 21.571 8.27313 15.6513 5.43126L7.43478 1.56438C6.77103 1.26126 6.04697 1.56438 5.74416 2.16845L1.81791 11.0528C1.51541 11.6584 1.81791 12.4447 2.42197 12.7459C4.17322 13.5322 7.61697 15.1647 10.636 16.675C21.8132 21.9959 31.297 21.6925 38.5445 9.90532H38.5451Z" fill="url(#paint1_linear_200_229664)"/>
</g>
<defs>
<linearGradient id="paint0_linear_200_229664" x1="37.9846" y1="41.6118" x2="12.9863" y2="27.2586" gradientUnits="userSpaceOnUse">
<stop stop-color="#0052CC"/>
<stop offset="0.918" stop-color="#2380FB"/>
<stop offset="1" stop-color="#2684FF"/>
</linearGradient>
<linearGradient id="paint1_linear_200_229664" x1="2.01516" y1="-1.62813" x2="27.0134" y2="12.7268" gradientUnits="userSpaceOnUse">
<stop stop-color="#0052CC"/>
<stop offset="0.918" stop-color="#2380FB"/>
<stop offset="1" stop-color="#2684FF"/>
</linearGradient>
<clipPath id="clip0_200_229664">
<rect width="40" height="40" fill="white"/>
</clipPath>
</defs>
</svg>
