<svg width="454" height="200" viewBox="0 0 454 200" fill="none" xmlns="http://www.w3.org/2000/svg">
<path d="M64.9975 92.3821C64.9058 91.8375 64.697 90.9116 65.2416 90.8199C65.7862 90.7282 66.8781 91.5055 66.9697 92.0501C66.9697 92.0501 76.8408 147.683 75.2859 147.481C73.731 147.279 72.1134 145.53 72.1134 145.53C70.6578 144.121 69.2647 141.979 67.8679 139.559C67.1705 138.351 66.5605 136.781 66.3345 135.538C66.107 134.288 66.1797 132.928 66.9607 131.831C67.281 131.381 68.8396 130.269 69.4156 130.679C70.0907 131.16 70.1509 132.695 69.8306 133.144C69.4636 133.66 69.0101 134.297 68.3091 135.206C67.6081 136.115 67.5561 137.384 68.1948 138.49C68.8509 139.627 71.5734 143.499 73.7893 141.605C76.0053 139.711 64.9975 92.3821 64.9975 92.3821Z" fill="#A0B1A5"/>
<path d="M96.9273 123.13C109.57 153.668 157.928 198.13 252.428 158.63C346.928 119.13 374.928 142.338 371.928 171.13C368.928 199.921 447.394 189.518 420.816 142.338" stroke="#A0B1A5" stroke-linecap="round"/>
<path d="M399.154 82.1594C392.413 51.2485 364.817 0.812437 321.538 48.7092" stroke="#A0B1A5" stroke-linecap="round"/>
<path d="M51.75 67.2394C47.6889 55.1147 43.1739 50.4503 36.5613 51.7828L37.4716 54.5004C44.7355 54.7508 49.6861 63.179 51.0531 68.3113L64.6571 112.08L51.9932 103.086L51.9258 104.432C62.1244 110.281 65.6911 117.298 67.023 119.144C68.3549 120.989 68.6918 114.258 68.6263 112.516C68.5609 110.773 51.75 67.2394 51.75 67.2394Z" fill="#A0B1A5"/>
<path d="M30.6405 84.2079C30.8771 90.2754 35.5584 95.7964 40.4821 98.118L40.3861 99.6871C29.5306 96.2794 23.9099 87.0767 24.2964 81.5974C24.6829 76.1181 31.157 74.8169 35.5628 77.4046C39.9685 79.9923 38.7587 86.7831 37.561 86.3019C36.3633 85.8207 37.4122 85.6367 36.3652 82.7317C35.3181 79.8267 30.4038 78.1405 30.6405 84.2079Z" fill="#A0B1A5"/>
<path d="M53.6357 42.0285L63.9088 88.0023C65.0922 87.8031 64.4195 86.0154 64.4732 85.3303C64.7973 82.4363 61.6174 64.3466 59.9869 55.6634C58.8582 48.9577 59.4516 46.4579 59.8893 46.0462C71.6526 41.2269 74.8687 53.7075 74.8667 56.7082C74.8647 59.7089 70.3089 80.8407 67.6825 83.3109C67.0264 84.2325 66.6046 85.9438 68.0076 85.2424C69.4107 84.5411 77.3938 60.6772 78.4744 51.0307C78.3182 35.6432 61.8502 38.6178 53.6357 42.0285Z" fill="#A0B1A5"/>
<path d="M214.426 176.13C163.926 176.13 116.426 144.13 104.426 131.63C92.4255 119.13 90.4258 116.63 90.4258 116.63C91.4263 116.13 93.2596 118.463 93.9263 119.13C157.126 184.73 225.926 172.398 248.926 162.63C344.426 124.13 352.426 148.63 356.426 155.63C360.426 162.63 370.926 186.63 392.926 182.63C414.926 178.63 431.927 144.13 404.926 130.63C396.426 128.13 394.51 136.13 393.926 132.63C393.343 129.13 400.926 125.13 407.426 124.63C450.926 124.63 427.426 166.63 407.426 180.63C379.826 195.43 374.462 183.386 353.926 157.63C333.39 131.874 264.926 176.13 214.426 176.13Z" fill="#A0B1A5"/>
<path d="M412.926 160.353C363.726 180.353 337.426 158.353 330.426 144.853H332.926C346.526 173.653 389.926 166.52 409.926 159.353C426.726 152.153 431.426 133.853 432.426 127.631C433.426 121.408 429.926 116.631 424.926 115.631C419.926 114.631 414.926 115.131 416.426 119.631C417.926 124.13 414.926 120.63 413.926 117.13C412.926 113.63 416.426 111.13 420.926 110.63C425.426 110.13 430.426 110.63 432.426 112.13C434.426 113.63 437.926 115.13 437.426 125.131C436.926 135.131 421.926 157.131 412.926 160.353Z" fill="#A0B1A5"/>
<path d="M267.353 145.185C228.55 143.889 215.339 164.282 213.551 174.743L215.251 174.441C217.541 158.594 240.669 143.573 267.353 147.217C294.037 150.861 303.615 162.522 297.698 166.721C270.216 184.599 300.493 193.221 322.89 190.694C345.288 188.168 341.212 179.317 329.189 176.473C317.165 173.628 311.389 170.508 316.02 167.533C320.651 164.559 326.326 165.908 327.471 167.533C328.616 169.159 329.189 169.971 330.906 170.378C332.624 170.784 332.182 169.582 329.761 166.721C327.34 163.859 317.928 164.689 314.302 166.721C305.599 173.872 323.399 172.953 332.051 179.317C340.703 185.681 322.509 189.746 314.302 188.663C286.362 184.437 298.214 178.587 305.714 166.721C313.214 154.855 282.43 145.185 267.353 145.185Z" fill="#A0B1A5"/>
<path d="M358.041 23.4981C394.538 34.8273 399.194 60.7164 396.953 72.3648L395.487 71.4894C399.271 53.9811 383.408 30.5263 357.283 25.6467C331.159 20.7671 317.921 29.9649 321.846 36.3415C340.686 64.2433 309.37 63.4518 289.525 53.4497C269.679 43.4476 276.763 35.4214 288.983 36.3485C301.203 37.2756 307.727 35.8656 304.538 31.2047C301.35 26.5437 295.58 26.1129 293.911 27.457C292.242 28.8011 291.407 29.4731 289.662 29.3407C287.916 29.2082 288.774 28.0816 292.088 25.848C295.402 23.6145 303.828 27.5721 306.436 30.9074C311.846 41.3186 295.668 34.5207 285.265 38.4196C274.862 42.3185 290.232 52.5719 298.253 54.1119C325.761 58.7872 316.942 48.7218 314.407 33.7182C311.871 18.7145 344.048 18.5637 358.041 23.4981Z" fill="#A0B1A5"/>
<circle cx="399.926" cy="140.626" r="4.5" fill="#A0B1A5"/>
<path d="M396.425 36.1285C408.242 49.8148 404.592 75.1286 399.425 83.1286V80.6285C406.625 68.2285 402.425 52.1285 399.425 45.6285C394.925 30.1284 368.925 20.6284 359.925 31.1286C350.925 41.6288 365.394 49.0113 368.925 45.6285C372.457 42.2458 366.925 41.6284 365.925 40.6285C364.925 39.6286 366.925 39.1284 370.925 40.6285C374.925 42.1286 380.409 48.9535 368.925 51.6284C357.441 54.3034 346.092 40.8017 354.926 29.6283C363.759 18.4549 384.609 22.4422 396.425 36.1285Z" fill="#A0B1A5"/>
<path d="M27.46 56.2125C28.7218 56.1235 31.9604 54.0986 33.4219 53.0972C35.1706 52.7202 33.1646 55.4402 31.943 56.8473C31.9326 58.4965 27.1525 60.0912 24.7638 60.6825C23.2141 60.2846 19.6722 60.4077 18.095 60.519C14.3987 62.0479 10.3288 61.2783 8.75595 60.7024C5.8554 59.1318 6.36492 55.2706 6.98224 53.5363C9.90366 51.8085 12.6454 52.9253 13.6511 53.6997C15.2898 55.3594 23.5398 56.0664 27.46 56.2125Z" fill="#C28E8F"/>
<path d="M42.867 36.4215C44.1865 42.5418 40.9388 47.2832 39.15 48.8888C38.2336 49.8925 39.4052 50.8471 40.1055 51.199C47.3702 53.064 51.7084 38.1752 50.2556 37.8022L46.8655 36.9318C44.8393 35.1727 45.0789 31.8272 45.4519 30.3743C41.9546 31.1283 42.2714 34.7199 42.867 36.4215Z" fill="#C28E8F"/>
<path d="M29.6143 41.7947C29.7451 36.4597 35.6415 28.3719 38.5734 24.9949C40.0341 24.1309 39.9019 25.8522 39.6533 26.8208C37.4073 29.1349 39.18 31.3452 40.3471 32.161C43.1845 38.0516 40.269 44.5301 39.5359 45.3744C38.3526 48.3743 37.0141 47.8242 36.4928 47.1742L37.3631 43.7841L37.6118 42.8155C38.4075 39.716 36.1806 39.0066 34.9677 39.0394C33.308 40.6782 34.333 43.5224 35.0529 44.7396C35.9168 46.2004 34.9155 47.2855 34.3069 47.6454C32.0818 46.6612 30.2514 43.3349 29.6143 41.7947Z" fill="#C28E8F"/>
<path d="M24.8366 30.2439C22.5016 31.2964 22.1839 27.8422 22.3169 25.9835C22.247 24.1902 25.3768 22.5878 26.9504 22.0108C33.0707 20.6913 34.409 25.1302 34.313 27.5146C30.659 29.3188 29.4179 34.5174 29.1692 35.486C29.1483 38.7844 27.8517 39.2774 27.2059 39.1117C26.4415 37.2636 27.0793 33.5728 27.4938 31.9584C27.9911 30.0212 29.4156 28.4942 30.0656 27.9729C30.7619 25.2608 26.8698 28.3569 24.8366 30.2439Z" fill="#C28E8F"/>
<path d="M19.1942 40.1525C20.8538 38.5137 23.1491 34.8012 24.0893 33.1498C24.7258 32.0743 25.3232 32.9503 25.5423 33.5228C24.4232 37.8814 26.4587 42.0175 26.21 42.9861C26.0111 43.761 26.5242 44.4433 26.8056 44.6876C30.104 44.7085 30.597 46.0052 30.4313 46.6509C28.3056 45.2792 22.111 45.5472 19.2794 45.8527C16.5674 45.1564 18.0926 41.7624 19.1942 40.1525Z" fill="#C28E8F"/>
<path d="M32.8397 49.3341C26.6512 46.0934 19.1748 49.6114 16.2102 51.7755C18.1369 53.9221 24.1989 54.1707 26.989 54.0266C31.9563 54.7857 32.4667 50.787 34.2926 49.7071L32.8397 49.3341Z" fill="#C28E8F"/>
<path d="M26.7012 61.1797C31.3504 62.3734 34.3276 56.9431 35.2351 54.0788C37.1827 52.9269 37.8835 57.1677 37.9904 59.4321C36.8963 63.6939 32.251 65.7019 30.0652 66.1731C26.9657 65.3774 23.9047 68.7212 22.7616 70.4926C21.5993 70.1942 21.2433 67.6938 21.2105 66.4809C20.933 64.3448 24.7553 62.0567 26.7012 61.1797Z" fill="#C28E8F"/>
<path d="M15.9285 38.7979C16.6745 35.8921 20.8105 33.8567 22.0279 33.1367C22.9022 32.9482 22.6321 33.464 22.3878 33.7454C22.7478 34.354 22.4564 35.8278 21.2819 36.0425C20.3423 36.2143 19.1016 37.7197 18.5987 38.4509C16.8841 41.108 16.5241 40.4994 16.1511 41.9523C16.5241 40.4994 15.8042 39.2821 15.9285 38.7979Z" fill="#C28E8F"/>
<path d="M14.7765 29.2102C15.2634 28.9222 19.4253 29.1992 21.4453 29.3737C23.4715 31.1328 22.8437 31.9696 22.2765 32.1682C19.8525 31.9588 17.3748 33.8349 16.4389 34.7992C14.6902 35.1762 14.3928 38.7477 14.4626 40.4864C13.9757 40.7743 13.0599 38.5776 12.6628 37.4432C11.5109 35.4956 11.969 32.1029 12.342 30.6501C13.0278 29.5872 14.2508 29.2473 14.7765 29.2102Z" fill="#C28E8F"/>
<path d="M5.84355 41.8871C7.21523 39.7614 9.744 38.7587 10.8369 38.5231C12.5856 38.1461 14.0482 42.1007 14.5608 44.1251C12.6237 43.6277 11.4021 45.0348 11.0334 45.8006C11.5989 48.4236 13.2062 47.3908 13.9392 46.5466C18.3999 46.8658 18.2149 47.9884 17.5649 48.5098C16.879 49.5727 12.7416 50.5409 10.7586 50.8922C7.7482 51.3582 6.12728 48.1545 5.69313 46.4944C5.11719 45.5206 5.55344 43.0171 5.84355 41.8871Z" fill="#C28E8F"/>
<path d="M418.589 91.5964C419.038 92.779 421.911 95.2966 423.291 96.4075C424.156 97.9733 420.973 96.8364 419.274 96.0722C417.691 96.5375 414.787 92.42 413.532 90.303C413.466 88.7044 412.328 85.3483 411.766 83.8701C409.237 80.7713 408.801 76.6523 408.899 74.9802C409.567 71.7501 413.411 71.1251 415.25 71.2163C417.746 73.5158 417.467 76.4631 417.015 77.6493C415.899 79.6969 417.599 87.8005 418.589 91.5964Z" fill="#C28E8F"/>
<path d="M441.98 100.644C436.5 103.672 431.024 101.928 428.971 100.678C427.746 100.09 427.169 101.487 427.034 102.259C427.342 109.753 442.849 109.616 442.788 108.117L442.644 104.62C443.745 102.173 447.017 101.438 448.516 101.376C446.786 98.2448 443.438 99.5834 441.98 100.644Z" fill="#C28E8F"/>
<path d="M433.015 89.5025C438.162 88.0901 447.606 91.4052 451.685 93.2393C452.933 94.389 451.247 94.7586 450.247 94.7997C447.384 93.316 445.779 95.6505 445.334 97.0033C440.511 101.418 433.467 100.493 432.447 100.035C429.234 99.7663 429.375 98.3261 429.847 97.6395L433.344 97.4958L434.343 97.4548C437.54 97.3234 437.578 94.9866 437.197 93.8345C435.149 92.7176 432.721 94.5189 431.763 95.5591C430.613 96.8074 429.286 96.1613 428.765 95.6822C429.067 93.2678 431.724 90.5564 433.015 89.5025Z" fill="#C28E8F"/>
<path d="M442.699 81.5984C441.018 79.6658 444.234 78.366 446.052 77.9577C447.749 77.3739 450.186 79.909 451.192 81.2495C454.219 86.7298 450.355 89.2906 448.044 89.886C445.263 86.9071 439.927 87.2169 438.928 87.258C435.764 88.1887 434.918 87.0891 434.89 86.423C436.44 85.1583 440.158 84.7053 441.823 84.6369C443.821 84.5548 445.694 85.4787 446.381 85.951C449.178 85.836 445.092 83.0014 442.699 81.5984Z" fill="#C28E8F"/>
<path d="M431.585 79.0523C433.632 80.1692 437.849 81.297 439.701 81.7213C440.915 82.0208 440.248 82.8453 439.763 83.2201C435.267 83.4049 431.893 86.546 430.894 86.5871C430.094 86.6199 429.589 87.3079 429.436 87.6478C430.367 90.8122 429.267 91.6581 428.601 91.6855C429.302 89.2546 427.26 83.4002 426.151 80.7768C426.036 77.9791 429.726 78.4614 431.585 79.0523Z" fill="#C28E8F"/>
<path d="M426.726 94.765C428.045 87.9051 422.522 81.7599 419.595 79.5448C418.095 82.0085 419.604 87.8849 420.546 90.5151C421.251 95.4904 425.227 94.8266 426.787 96.2638L426.726 94.765Z" fill="#C28E8F"/>
<path d="M413.614 92.3012C413.811 97.0971 419.868 98.3829 422.873 98.4263C424.537 99.9592 420.678 101.853 418.541 102.608C414.144 102.788 410.883 98.9189 409.802 96.9616C409.67 93.7643 405.586 91.7969 403.56 91.2129C403.511 90.0139 405.803 88.9523 406.955 88.5714C408.92 87.6899 412.213 90.6907 413.614 92.3012Z" fill="#C28E8F"/>
<path d="M431.941 75.5348C434.938 75.4116 438.079 78.7855 439.12 79.7436C439.552 80.5265 438.98 80.4166 438.641 80.2637C438.161 80.7838 436.666 80.9295 436.122 79.8668C435.687 79.0165 433.888 78.2624 433.043 77.9916C430.004 77.1156 430.483 76.5955 428.984 76.6571C430.483 76.5955 431.441 75.5553 431.941 75.5348Z" fill="#C28E8F"/>
<path d="M440.79 71.6683C441.206 72.0515 442.14 76.1166 442.555 78.1012C441.455 80.5484 440.472 80.1885 440.119 79.7026C439.621 77.321 437.11 75.4892 435.917 74.871C435.052 73.3052 431.546 74.0497 429.901 74.6177C429.485 74.2344 431.325 72.7243 432.297 72.0172C433.83 70.3528 437.21 69.8136 438.709 69.752C439.925 70.1025 440.602 71.1755 440.79 71.6683Z" fill="#C28E8F"/>
<path d="M426.076 66.7681C428.507 67.4689 430.196 69.6014 430.736 70.58C431.601 72.1458 428.236 74.6861 426.445 75.7605C426.363 73.7622 424.664 72.998 423.824 72.8657C421.476 74.1632 422.928 75.4046 423.948 75.8631C424.927 80.2266 423.799 80.373 423.113 79.9008C421.897 79.5504 419.778 75.8676 418.87 74.0701C417.556 71.3217 420.156 68.8462 421.621 67.952C422.387 67.1198 424.91 66.816 426.076 66.7681Z" fill="#C28E8F"/>
<path opacity="0.99" fill-rule="evenodd" clip-rule="evenodd" d="M121.077 41.1311C123.107 41.1104 124.797 41.3589 126.267 41.9058C127.467 42.3491 129.289 43.4345 130.315 44.3169C131.34 45.2035 132.677 46.7488 133.279 47.7555C133.881 48.7663 134.678 50.6182 135.048 51.8693C135.434 53.1826 135.72 55.6393 135.72 57.6693C135.72 59.8733 135.401 62.4295 134.869 64.505C134.4 66.3279 133.312 69.3107 132.453 71.1336C131.593 72.9565 129.991 75.8482 128.887 77.555C127.786 79.266 125.719 82.0624 124.295 83.7693C122.871 85.4803 120.043 88.459 118.013 90.3979C115.979 92.3367 112.682 95.1331 110.681 96.6121C108.68 98.0911 105.163 100.424 102.867 101.791C100.572 103.158 98.6576 104.392 98.6203 104.537C98.5829 104.678 100.14 106.079 102.083 107.64C104.026 109.206 109.095 113.097 113.355 116.287C117.615 119.481 123.593 123.669 126.64 125.6C129.688 127.53 135.359 130.708 139.241 132.663C143.123 134.623 148.263 136.984 150.658 137.916C153.054 138.848 157.073 140.116 159.585 140.738C162.565 141.475 165.737 141.935 168.718 142.063C171.998 142.208 174.161 142.076 176.399 141.599C178.114 141.231 180.68 140.377 182.108 139.694C183.536 139.014 185.595 137.568 186.687 136.487C187.779 135.406 189.033 133.773 189.473 132.862C189.967 131.843 190.345 130.008 190.453 128.098C190.581 125.749 190.407 124.257 189.739 121.987C189.253 120.334 188.854 118.797 188.854 118.569C188.854 118.341 189.228 118.155 189.685 118.155C190.141 118.155 191.217 118.781 192.072 119.547C192.927 120.309 194.135 122.037 194.758 123.379C195.381 124.726 196.095 127.307 196.352 129.133C196.693 131.565 196.697 133.276 196.361 135.555C196.07 137.506 195.373 139.739 194.476 141.562C193.604 143.335 192.197 145.299 190.851 146.612C189.639 147.797 187.526 149.433 186.156 150.254C184.786 151.07 182.17 152.217 180.343 152.797C178.209 153.477 175.614 153.937 173.078 154.082C170.886 154.206 167.473 154.082 165.397 153.8C163.342 153.522 160.074 152.831 158.131 152.263C156.188 151.695 152.639 150.357 150.243 149.293C147.848 148.224 143.733 146.065 141.109 144.499C138.485 142.933 133.624 139.781 130.315 137.494C127.006 135.207 122.24 131.743 119.728 129.796C117.216 127.853 112.757 124.299 109.822 121.896C106.882 119.497 102.12 115.632 99.2347 113.304C96.3492 110.975 93.8956 109.061 93.7793 109.049C93.6631 109.037 93.3392 110.288 93.0528 111.829C92.7663 113.374 92.0563 117.339 91.4751 120.641C90.8938 123.943 90.3085 129.071 90.1714 132.033C90.0344 134.996 90.0676 138.538 90.242 139.905C90.4953 141.898 90.815 142.652 93.1565 145.013L92.1186 145.481C91.3173 145.842 90.6074 145.808 89.0048 145.34C87.7261 144.967 86.1318 144.027 84.8531 142.904C83.512 141.724 82.3745 140.203 81.6437 138.625C81.021 137.278 80.3193 135.058 80.091 133.691C79.8585 132.323 79.6675 129.2 79.6675 126.751C79.6634 124.303 80.0495 119.642 80.5186 116.394C80.9919 113.146 81.7268 108.44 82.1544 105.934C82.5862 103.427 84.6413 93.5464 86.7255 83.9764C88.8097 74.4064 90.7818 64.8033 91.1056 62.6408C91.4336 60.474 91.6868 57.4953 91.6702 56.0122C91.6536 54.5291 91.4211 52.7269 91.1513 52.0019C90.8855 51.2769 90.2462 50.2039 89.7314 49.6198C88.9716 48.7539 88.4277 48.5551 86.8251 48.5633C85.7374 48.5675 84.0144 48.9569 82.9848 49.4251C81.9593 49.8932 79.9955 51.0739 78.6254 52.0516C77.2553 53.0335 74.9179 55.1132 73.4274 56.6833C71.9411 58.2493 69.666 60.9298 68.3748 62.6408C67.0836 64.3476 64.9745 67.4257 63.6916 69.4765C62.4045 71.5272 60.3121 75.3469 59.0416 77.9693C57.767 80.5917 56.1063 84.5979 55.3466 86.8764C54.591 89.155 53.5862 92.9291 53.1171 95.2657C52.5691 97.9876 52.2618 101.111 52.266 103.966C52.266 106.414 52.4528 109.583 52.6811 111.009C52.9053 112.434 53.4575 114.576 53.9018 115.773C54.346 116.97 55.5126 118.863 56.4966 119.986C57.4764 121.105 58.888 122.269 59.6312 122.575C60.3743 122.878 61.869 123.122 62.9526 123.118C64.0362 123.114 65.672 122.77 66.5854 122.356C67.4987 121.942 68.8854 120.873 69.666 119.982C70.4465 119.091 71.4761 117.467 71.9494 116.369C72.5099 115.077 73.033 114.422 73.4357 114.509C73.8385 114.592 74.1 115.226 74.1706 116.295C74.2453 117.355 73.9381 118.694 73.3195 120.019C72.7922 121.159 71.5259 122.994 70.5088 124.096C69.3961 125.301 67.5901 126.619 65.9709 127.41C63.4466 128.636 62.9982 128.719 58.7053 128.719C54.4706 128.719 53.9267 128.624 51.4315 127.456C49.9451 126.764 47.8153 125.364 46.6943 124.349C45.5734 123.334 44.0331 121.527 43.2691 120.33C42.5052 119.133 41.3925 116.709 40.7947 114.944C39.9394 112.409 39.6613 110.64 39.491 106.555C39.3291 102.715 39.4578 100.25 39.9976 97.0264C40.392 94.6318 41.4507 90.4393 42.3516 87.705C43.2484 84.9707 44.797 81.0557 45.7892 79.005C46.7857 76.9543 48.9114 73.321 50.5139 70.9265C52.1207 68.5319 54.9148 64.8033 56.725 62.6408C58.5351 60.474 61.4953 57.3959 63.3013 55.7968C65.1073 54.1935 67.7977 52.0641 69.284 51.0573C70.7703 50.0548 73.4773 48.5261 75.304 47.6602C77.1308 46.7985 79.7464 45.8042 81.1165 45.4562C82.4866 45.1082 84.5417 44.8224 85.6834 44.8224C86.8251 44.8182 88.6934 45.0875 89.8352 45.4148C91.1305 45.7876 92.6916 46.6991 93.9869 47.8425C95.1286 48.8492 96.6606 50.7715 97.3872 52.1179C98.1179 53.4602 99.0354 55.8672 99.4257 57.4622C99.9156 59.459 100.148 62.1685 100.165 66.1622C100.181 69.8203 99.9198 73.7229 99.4506 76.7264C99.0396 79.3447 97.8895 85.8697 96.889 91.2264C95.8884 96.5831 95.1079 101.008 95.1494 101.066C95.1951 101.12 96.0752 100.622 97.1007 99.9595C98.1262 99.2926 100.837 97.1838 103.121 95.274C105.404 93.36 108.555 90.315 110.125 88.5046C111.694 86.6983 114.268 83.2639 115.85 80.8693C117.428 78.4747 119.545 74.5639 120.558 72.1693C121.567 69.7747 122.808 66.3279 123.315 64.505C124.054 61.8453 124.245 60.0473 124.266 55.3908C124.291 50.1418 124.207 49.4251 123.361 47.8301C122.846 46.8606 122.007 45.7876 121.492 45.4396C120.977 45.0958 119.811 44.7064 118.897 44.5738C117.739 44.4081 116.548 44.5945 114.953 45.1994C113.695 45.6799 112.437 46.0694 112.151 46.0694C111.864 46.0694 111.632 45.7876 111.632 45.4479C111.632 45.1041 112.333 44.2672 113.189 43.5795C114.044 42.8959 115.493 42.0715 116.406 41.7484C117.32 41.4252 119.421 41.1476 121.077 41.1311ZM237.118 51.0366C238.318 51.0366 240.419 51.3225 241.789 51.6746C243.159 52.0226 245.214 52.7518 246.356 53.2903C247.498 53.8331 249.341 55.1795 250.454 56.2815C251.758 57.5782 253.032 59.4673 254.037 61.605C254.892 63.4279 255.818 65.7603 256.578 68.6479L265.583 68.681C270.536 68.6976 280.288 69.0415 287.251 69.4392C294.213 69.841 300.848 70.1062 304.065 69.8907L304.169 68.13C304.248 66.7795 304.493 66.2575 305.207 65.897C305.722 65.636 307.075 65.4496 308.217 65.4827C309.359 65.52 310.995 65.7313 311.85 65.9592C312.705 66.1829 313.693 66.7877 314.046 67.3015C314.399 67.8152 314.632 68.7929 314.445 70.7193H323.525L324.301 67.1979C324.729 65.259 325.617 62.5579 326.273 61.1908C326.933 59.8236 328.183 57.893 329.055 56.9029C329.952 55.8796 331.625 54.6409 332.92 54.0361C334.967 53.0832 335.569 52.9921 338.733 53.1743C341.415 53.3318 342.76 53.6342 344.337 54.4379C345.479 55.0179 347.078 56.2193 347.891 57.1018C348.705 57.9842 349.618 59.4508 349.921 60.3622C350.229 61.2943 350.374 62.8355 350.249 63.8836C350.129 64.9069 349.66 66.4936 349.203 67.405C348.747 68.3165 347.277 70.0813 345.94 71.3325C344.383 72.7825 342.311 74.1496 340.186 75.1314C338.359 75.9724 335.835 76.9212 332.297 77.8119L332.036 80.687C331.895 82.2696 331.749 84.8671 331.65 89.3621L332.957 87.4979C333.676 86.4704 335.129 84.7346 336.188 83.6326C337.246 82.5306 338.811 81.2712 339.667 80.8362C340.588 80.3639 342.071 80.0407 343.299 80.0407C344.441 80.0407 345.89 80.2396 346.517 80.484C347.144 80.7243 348.103 81.3333 348.647 81.8304C349.191 82.3276 349.98 83.4793 350.403 84.3907C350.827 85.3021 351.175 86.98 351.184 88.1193C351.192 89.2586 350.893 91.214 350.523 92.4693C350.15 93.7204 349.187 96.0528 348.381 97.6478C347.576 99.2428 346.222 101.48 345.375 102.619C344.528 103.759 342.502 105.95 337.902 110.284L342.195 115.566C344.557 118.47 347.779 122.012 349.357 123.437C350.935 124.858 353.438 126.611 354.924 127.327C357.258 128.458 357.934 128.603 359.906 128.417C361.16 128.293 362.937 127.857 363.851 127.443C364.764 127.029 365.698 126.602 365.926 126.49C366.192 126.362 366.238 127.021 366.051 128.334C365.893 129.457 365.237 131.205 364.598 132.22C363.959 133.231 362.688 134.598 361.775 135.252C360.596 136.102 359.45 136.512 357.831 136.661C355.85 136.847 355.219 136.707 353.056 135.588C351.686 134.88 349.07 133.032 347.244 131.482C345.417 129.933 341.668 126.254 338.911 123.309C336.158 120.359 333.356 117.119 331.467 114.273L331.052 118.321C330.674 122.008 330.541 122.422 329.599 122.94C329.03 123.255 328.046 123.52 327.419 123.524C326.792 123.532 325.576 123.271 324.72 122.94C323.865 122.609 322.835 121.863 322.437 121.283C322.038 120.703 321.71 119.854 321.71 119.398C321.71 118.942 321.569 118.565 321.399 118.557C321.229 118.553 320.834 119.062 320.527 119.696C320.216 120.33 319.377 121.581 318.659 122.476C317.932 123.379 316.429 124.527 315.275 125.061C314.133 125.587 312.639 126.022 311.954 126.026C311.269 126.031 309.774 125.765 308.632 125.438C307.129 125.003 306.071 124.32 304.792 122.948C303.82 121.908 302.828 120.541 302.131 118.776L301.612 120.019C301.325 120.703 300.453 121.991 299.673 122.882C298.892 123.773 297.647 124.75 296.904 125.057C296.16 125.364 294.761 125.616 293.79 125.616C292.677 125.62 291.187 125.198 289.758 124.477C288.513 123.847 287.014 122.683 286.433 121.884C285.848 121.084 285.121 119.501 284.818 118.362C284.515 117.223 284.183 116.009 284.087 115.669C283.988 115.321 283.273 116.369 282.464 118.051C281.671 119.704 280.396 121.755 279.632 122.609C278.868 123.462 277.233 124.597 276 125.132C274.277 125.877 273.376 126.035 272.097 125.815C271.184 125.658 269.689 125.206 268.776 124.813C267.862 124.415 266.509 123.408 265.766 122.575C264.981 121.689 264.134 120.061 263.739 118.673C263.208 116.813 263.108 115.201 263.283 111.319C263.424 108.212 263.843 105.105 264.4 103.034C264.885 101.211 266.193 97.855 267.306 95.5764C268.597 92.925 270.137 90.5387 271.586 88.9479C272.828 87.5807 274.762 86.0023 275.879 85.4389C277.312 84.718 278.769 84.37 280.816 84.2706C283.352 84.1463 284.012 84.2747 286.005 85.2939C287.259 85.936 288.343 86.7397 288.409 87.0836C288.501 87.531 287.977 87.8003 286.541 88.053C285.449 88.2436 283.909 88.8028 283.124 89.2958C282.339 89.7888 281.002 91.1228 280.16 92.2621C279.313 93.4014 278.017 95.5474 277.278 97.0264C276.539 98.5054 275.501 100.933 274.97 102.412C274.439 103.891 273.621 106.688 273.156 108.626C272.662 110.685 272.309 113.565 272.309 115.566C272.305 117.447 272.491 119.356 272.72 119.812C272.969 120.309 273.55 120.641 274.173 120.641C274.862 120.641 275.655 120.115 276.531 119.087C277.262 118.234 278.457 116.229 279.192 114.634C279.927 113.039 281.098 109.869 281.8 107.591C282.497 105.312 283.543 101.352 284.12 98.7871C284.702 96.2227 285.175 93.7536 285.175 93.2978C285.175 92.8421 285.503 92.1627 285.902 91.7898C286.474 91.2554 287.201 91.156 289.327 91.3134C290.9 91.4336 292.76 91.8893 293.79 92.4071C295.073 93.0576 295.554 93.5506 295.558 94.23C295.563 94.7437 295.11 97.3993 294.558 100.134C294.006 102.868 293.333 107.251 293.063 109.869C292.789 112.488 292.677 115.566 292.81 116.705C292.939 117.844 293.408 119.24 293.844 119.812C294.537 120.715 294.795 120.794 295.824 120.434C296.696 120.127 297.365 119.315 298.365 117.326C299.411 115.255 299.814 113.776 300.113 110.905C300.329 108.854 300.711 103.821 300.964 99.7193C301.217 95.6178 301.699 89.6521 302.027 86.4621C302.359 83.2721 302.724 80.194 303.052 78.5907L292.972 78.048C287.429 77.7539 279.059 77.3976 274.38 77.265C269.701 77.1324 264.047 77.1407 257.773 77.555L257.981 78.6943C258.093 79.3199 258.309 84.0261 258.458 89.155C258.633 95.2947 258.55 100.386 258.218 104.069C257.939 107.147 257.433 111.713 257.097 114.219C256.756 116.726 256.013 120.641 255.444 122.919C254.871 125.198 253.601 128.74 252.617 130.791C251.334 133.459 250.309 134.962 249.005 136.081C248.004 136.943 246.626 137.755 245.941 137.887C245.256 138.024 243.666 137.891 242.412 137.593C241.158 137.295 239.294 136.483 238.273 135.787C237.251 135.087 235.512 133.401 234.407 132.033C233.303 130.666 231.759 128.243 230.974 126.648C230.189 125.053 229.106 122.07 227.578 116.291L227.109 117.948C226.851 118.859 226.639 119.837 226.639 120.123C226.635 120.409 225.776 123.296 224.725 126.544C223.679 129.792 221.749 134.685 220.445 137.419C219.141 140.153 217.431 143.111 216.646 143.994C215.347 145.452 215.069 145.581 213.557 145.411C212.644 145.307 210.867 144.756 209.613 144.184C208.359 143.613 206.441 142.279 205.358 141.214C204.274 140.153 202.825 138.165 202.14 136.798C201.455 135.431 200.475 132.866 199.96 131.101C199.097 128.135 199.026 127.087 199.047 117.326C199.059 108.713 199.234 105.54 199.994 100.134C200.504 96.4878 201.588 89.59 202.402 84.805C203.215 80.02 203.813 75.2226 203.738 74.1454C203.643 72.8529 203.772 72.1155 204.112 71.9705C204.399 71.8503 205.424 71.7509 206.396 71.7467C207.508 71.7426 209.007 72.1652 210.443 72.886C211.826 73.582 213.101 74.6053 213.678 75.4836C214.205 76.279 214.832 77.6793 215.077 78.5907C215.334 79.5394 215.421 81.6647 215.28 83.5621C215.147 85.385 214.479 90.1369 213.794 94.1264C213.109 98.1118 212.254 103.705 211.892 106.555C211.531 109.401 211.124 114.903 210.992 118.776C210.834 123.276 210.925 127.166 211.241 129.548C211.515 131.598 211.818 133.695 211.921 134.208C212.021 134.722 212.245 135.145 212.416 135.149C212.586 135.153 213.794 132.966 215.098 130.281C216.401 127.601 218.112 123.822 218.905 121.884C219.694 119.945 220.989 116.125 221.782 113.391C222.579 110.656 223.8 105.809 224.493 102.619C225.19 99.4293 226.079 94.5821 226.469 91.8478C226.855 89.1136 227.196 84.312 227.258 75.4836L228.711 75.2267C229.512 75.0859 230.912 75.0859 231.825 75.2226C232.738 75.3593 234.137 75.8979 234.939 76.4157C235.74 76.9336 236.753 78.1019 237.197 79.0092C237.974 80.6042 237.982 81.0806 237.492 92.8836C237.114 101.973 237.098 106.75 237.434 111.526C237.679 115.056 238.252 119.812 238.704 122.091C239.157 124.369 240.033 127.311 240.656 128.632C241.279 129.95 241.93 131.023 242.101 131.014C242.271 131.006 242.661 130.484 242.968 129.858C243.275 129.233 243.832 127.601 244.201 126.234C244.575 124.866 245.152 122.443 245.488 120.848C245.821 119.253 246.385 115.711 246.742 112.976C247.099 110.242 247.577 104.927 247.809 101.169C248.054 97.2128 248.1 91.2388 247.917 86.98C247.743 82.9324 247.46 79.6223 247.29 79.6264C247.12 79.6264 246.713 80.513 246.385 81.5943C246.057 82.6756 245.684 84.5399 245.555 85.7371C245.426 86.9344 245.086 88.0281 244.799 88.1649C244.513 88.3057 244.039 88.1649 243.749 87.8541C243.458 87.5434 242.848 85.9857 242.399 84.3907C241.947 82.7957 241.582 80.6042 241.582 79.5229C241.582 78.4416 241.872 76.8549 242.225 76.0014C242.578 75.148 243.62 73.7022 246.215 71.1336L245.14 66.7836C244.55 64.389 243.537 61.315 242.889 59.9479C242.242 58.5808 241.171 56.8242 240.506 56.0412C239.842 55.2582 238.318 54.0029 237.118 53.2448C235.919 52.4866 234.939 51.6829 234.939 51.4551C234.939 51.2272 235.919 51.0408 237.118 51.0366ZM336.64 62.2265C336.233 63.0219 335.428 64.9815 334.846 66.5765C334.269 68.1715 333.875 69.522 333.979 69.58C334.083 69.638 335.615 68.9627 337.383 68.0803C339.152 67.202 341.207 65.8017 341.95 64.9732C342.693 64.1446 343.486 63.0012 343.715 62.4336C343.943 61.8619 344.134 60.8842 344.138 60.2586C344.142 59.633 343.906 58.8832 343.619 58.5932C343.329 58.3073 342.49 58.0712 341.759 58.0753C340.85 58.0795 339.941 58.5103 338.903 59.43C338.064 60.1716 337.047 61.4269 336.64 62.2265ZM313.614 78.4126C311.842 92.6764 311.119 98.7747 310.866 101.169C310.617 103.56 310.484 108.407 310.571 111.941C310.683 116.502 310.907 118.723 311.348 119.605C311.684 120.289 312.332 120.91 312.788 120.985C313.241 121.059 314.175 120.67 314.86 120.119C315.545 119.568 316.882 117.641 317.828 115.839C318.775 114.037 319.946 111.257 320.432 109.662C321.187 107.181 321.312 105.71 321.312 99.5121C321.312 95.5226 321.49 89.9297 321.706 87.0836C321.922 84.2333 322.196 81.0184 322.321 79.9372L322.541 77.9693C319.161 78.0894 317.152 78.1889 315.898 78.2676L313.614 78.4126ZM336.034 89.9836C335.071 91.2388 333.717 93.2896 333.02 94.5407C331.986 96.4133 331.716 97.4697 331.508 100.444C331.351 102.752 331.409 104.069 331.675 104.069C331.903 104.069 333.086 102.814 334.307 101.273C335.527 99.7358 337.088 97.6396 337.782 96.6121C338.471 95.5888 339.53 93.7701 340.132 92.5728C340.73 91.3797 341.502 89.329 341.842 88.0157C342.349 86.081 342.365 85.53 341.934 85.0743C341.493 84.6103 341.099 84.7843 339.596 86.11C338.6 86.9883 336.997 88.7324 336.034 89.9836ZM169.673 54.3633C171.201 54.3675 173.186 54.5995 174.078 54.8812C174.992 55.1712 175.971 55.8423 176.324 56.4265C176.665 56.9982 176.868 57.8806 176.777 58.3902C176.681 58.8956 176.702 59.314 176.814 59.314C176.926 59.3182 178.795 58.9495 180.966 58.4938C183.137 58.0422 187.061 57.5616 189.685 57.4208C193.313 57.2302 195.207 57.3338 197.573 57.8475C199.284 58.2203 201.426 58.937 202.331 59.4425C203.236 59.9479 204.411 61.0168 204.938 61.8122C205.573 62.7733 205.897 63.8629 205.889 65.0229C205.877 66.6427 205.802 66.767 204.942 66.5433C204.428 66.4107 202.979 66.042 201.725 65.723C200.471 65.404 197.669 65.143 195.497 65.143C193.326 65.143 189.685 65.4123 187.401 65.7396C185.118 66.0669 181.477 66.709 179.305 67.1689C177.134 67.6246 175.224 68.1466 175.054 68.3247C174.884 68.5029 174.273 71.0715 173.692 74.0336C173.115 76.9957 171.778 84.4529 170.724 90.605C169.063 100.308 168.806 102.628 168.764 108.088C168.739 111.775 168.889 114.571 169.134 114.837C169.362 115.085 170.014 115.189 170.587 115.064C171.155 114.944 172.43 114.054 173.418 113.084C174.485 112.036 175.963 109.807 177.068 107.591C178.33 105.051 179.193 102.545 179.779 99.7193C180.426 96.5914 180.584 94.6691 180.422 91.8478C180.285 89.4906 179.87 87.2079 178.367 83.1479L179.355 82.398C179.899 81.9879 181.091 81.4659 182.004 81.238C183.1 80.9687 184.088 80.9687 184.91 81.2422C185.595 81.4659 186.762 82.3151 187.505 83.1271C188.464 84.1753 188.991 85.2856 189.324 86.98C189.598 88.3803 189.693 90.9861 189.548 93.2978C189.415 95.4646 188.921 98.725 188.452 100.548C187.982 102.371 186.837 105.449 185.902 107.384C184.968 109.322 183.428 111.891 182.481 113.097C181.535 114.302 179.637 116.162 178.267 117.235C176.897 118.304 174.747 119.597 173.493 120.11C172.239 120.62 170.371 121.047 169.341 121.055C168.312 121.067 166.68 120.79 165.708 120.446C164.737 120.098 163.358 119.394 162.64 118.88C161.926 118.37 160.805 116.879 158.962 113.184L158.094 114.944C157.621 115.914 156.545 117.426 155.707 118.308C154.872 119.191 153.581 120.168 152.838 120.483C152.095 120.798 150.554 121.055 149.413 121.055C148.271 121.055 146.731 120.757 145.988 120.388C145.244 120.019 144.107 119.228 143.459 118.627C142.811 118.027 141.985 116.974 141.62 116.291C141.259 115.607 140.752 114.116 140.03 110.905L138.543 114.012C137.73 115.723 136.335 117.948 135.45 118.955C134.566 119.961 133.096 121.125 132.183 121.536C131.27 121.946 129.588 122.281 128.446 122.281C127.305 122.281 125.623 121.942 124.71 121.523C123.796 121.109 122.435 120.135 121.683 119.361C120.936 118.586 119.956 116.97 119.504 115.773C118.918 114.211 118.69 112.579 118.698 109.973C118.702 107.98 118.98 105.043 119.317 103.448C119.657 101.853 120.321 99.3381 120.795 97.855C121.272 96.376 122.447 93.4843 123.41 91.4336C124.374 89.3829 126.018 86.4953 127.064 85.0121C128.11 83.5331 129.875 81.5529 130.987 80.6166C132.104 79.6803 133.852 78.4872 134.882 77.9734C135.907 77.4556 137.775 76.9419 139.033 76.8259C140.333 76.7057 142.031 76.8383 142.978 77.1366C143.891 77.4224 145.157 78.1474 145.788 78.7482C146.423 79.3447 146.934 80.0697 146.93 80.3514C146.926 80.6373 146.639 80.9646 146.299 81.0764C145.954 81.1924 145.07 81.2877 144.327 81.2919C143.584 81.296 142.239 81.7144 141.338 82.224C140.433 82.7336 138.788 84.2664 137.684 85.6336C136.576 87.0007 134.67 90.17 133.441 92.6764C132.216 95.1828 130.746 98.725 130.174 100.548C129.601 102.371 128.932 105.076 128.691 106.555C128.446 108.038 128.239 110.462 128.235 111.941C128.231 113.61 128.446 114.953 128.812 115.462C129.327 116.191 129.53 116.229 130.481 115.773C131.074 115.491 132.158 114.373 132.889 113.287C133.619 112.206 134.815 110.014 135.55 108.419C136.285 106.824 137.626 103.377 138.527 100.755C139.432 98.1367 140.802 93.5796 141.574 90.6257C142.346 87.676 143.222 85.0204 143.526 84.7221C143.829 84.428 144.667 84.167 145.394 84.1463C146.12 84.1214 147.461 84.1421 148.375 84.1877C149.288 84.2333 150.737 84.6227 151.592 85.0536C152.448 85.4886 153.253 86.0769 153.382 86.3586C153.506 86.6444 152.863 90.141 151.949 94.1264C151.036 98.116 150.069 102.495 149.795 103.862C149.521 105.229 149.276 108.254 149.251 110.578C149.213 114.062 149.33 114.936 149.923 115.549C150.538 116.187 150.775 116.216 151.584 115.76C152.103 115.47 152.946 114.629 153.457 113.896C153.967 113.163 154.843 111.444 155.404 110.076C155.96 108.709 156.986 105.635 157.679 103.241C158.372 100.85 159.776 94.0436 160.801 88.1193C161.822 82.195 162.943 75.8564 163.288 74.0336C163.637 72.2107 163.877 70.6903 163.828 70.653C163.778 70.6116 162.802 70.827 161.66 71.1212C160.519 71.4195 157.247 71.9912 154.395 72.393C150.293 72.9689 148.595 73.0352 146.299 72.7037C144.701 72.4759 142.666 71.9332 141.774 71.5023C140.885 71.0756 139.764 70.16 139.282 69.4765C138.622 68.5402 138.411 67.608 138.411 65.665C138.411 64.2523 138.597 62.8852 138.826 62.6283C139.133 62.2762 139.511 62.3218 140.279 62.8023C140.848 63.1586 142.438 63.6558 143.808 63.9085C145.614 64.2399 147.412 64.244 150.347 63.9209C152.572 63.6723 156.778 62.997 159.688 62.4212C162.599 61.8412 165.102 61.2363 165.248 61.0748C165.393 60.909 165.766 59.4839 166.078 57.9013C166.385 56.3146 166.696 54.8729 166.767 54.6906C166.833 54.5083 168.141 54.3592 169.673 54.3633ZM379.088 80.0242C379.386 80.0159 380.042 80.3432 380.553 80.7492C381.317 81.3623 381.496 81.9754 381.703 87.0711L383.987 86.0023C385.24 85.414 386.831 84.4901 387.516 83.9474C388.313 83.3177 389.322 82.9614 390.318 82.9531C391.173 82.949 392.577 83.2887 393.432 83.7154C394.287 84.138 395.504 85.0701 396.13 85.7869C396.757 86.4994 397.276 87.3197 397.28 87.6014C397.285 87.8873 396.164 90.9654 394.789 94.4371C393.415 97.913 391.813 102.387 391.227 104.38C390.646 106.377 389.961 109.405 389.708 111.112C389.454 112.823 389.363 114.874 389.504 115.669C389.645 116.469 390.098 117.567 390.509 118.109C391.119 118.926 391.472 119.046 392.498 118.797C393.183 118.631 394.445 117.77 395.3 116.879C396.155 115.988 397.301 114.373 397.845 113.287C398.393 112.206 399.373 109.865 400.025 108.088C400.868 105.797 401.399 104.89 401.839 104.985C402.184 105.059 402.723 105.677 403.047 106.356C403.533 107.384 403.545 108.009 403.118 110.076C402.836 111.444 402.076 113.681 401.428 115.048C400.785 116.415 399.352 118.544 398.244 119.779C397.052 121.109 395.387 122.414 394.158 122.986C393.017 123.516 391.522 123.951 390.837 123.951C390.152 123.951 388.657 123.52 387.516 122.99C386.374 122.464 384.829 121.304 384.086 120.405C383.343 119.51 382.409 117.844 382.01 116.705C381.471 115.156 381.296 113.387 381.321 109.662C381.35 105.2 381.491 104.272 382.724 100.548C383.48 98.2693 384.634 95.1497 385.29 93.6086C386.082 91.7443 386.305 90.8163 385.959 90.8246C385.672 90.8328 384.435 91.1601 380.964 92.2621L379.988 97.2336C379.449 99.9678 378.519 103.696 377.917 105.519C377.315 107.342 376.053 110.325 375.11 112.148C374.172 113.967 372.353 116.577 371.075 117.948C369.426 119.709 367.977 120.786 366.093 121.631C363.983 122.58 363.053 122.783 361.567 122.609C360.538 122.484 358.686 121.946 357.449 121.411C356.041 120.802 354.592 119.738 353.579 118.569C352.475 117.297 351.69 115.785 351.101 113.805C350.353 111.294 350.266 110.188 350.457 105.519C350.619 101.571 350.922 99.363 351.603 97.2336C352.114 95.6386 353.193 93.0286 354.003 91.4336C354.812 89.8386 356.332 87.6304 357.378 86.5201C358.424 85.414 360.172 84.0593 361.256 83.5166C362.584 82.8496 363.938 82.5306 365.408 82.5306C366.653 82.5306 368.206 82.8413 369.032 83.2556C369.825 83.6533 370.904 84.631 371.432 85.4264C371.955 86.226 372.503 87.531 372.644 88.3264C372.789 89.126 372.673 90.895 372.391 92.2621C372.108 93.6293 371.286 95.8498 370.564 97.1963C369.837 98.5427 368.127 100.846 366.757 102.321C365.387 103.796 363.004 105.818 358.661 108.626V110.905C358.661 112.16 358.989 113.958 359.387 114.903C359.819 115.918 360.579 116.846 361.256 117.181C361.883 117.488 362.771 117.741 363.228 117.741C363.685 117.741 364.76 117.397 365.615 116.97C366.47 116.548 367.878 115.383 368.746 114.381C369.609 113.382 371.041 111.166 371.93 109.455C372.818 107.748 374.006 104.765 374.57 102.826C375.135 100.892 375.816 97.8135 376.082 95.9907C376.53 92.9416 376.501 92.5231 375.708 90.7086C375.239 89.6273 374.857 88.0447 374.861 87.1871C374.865 86.3337 375.239 84.8423 375.691 83.8729C376.144 82.9076 376.97 81.6481 377.531 81.0764C378.091 80.5089 378.793 80.0366 379.088 80.0242ZM363.552 89.4823C362.755 90.7831 361.629 93.3393 361.044 95.1621C360.463 96.985 359.865 99.4085 359.711 100.548L359.437 102.619C363.772 98.1947 365.262 96.1316 366.263 94.1264C367.338 91.9763 367.811 90.4807 367.807 89.2586C367.799 88.2933 367.699 87.2203 367.587 86.8764C367.475 86.5367 367.147 86.2633 366.861 86.2716C366.574 86.2757 366.039 86.4704 365.669 86.6983C365.3 86.9261 364.345 88.1814 363.552 89.4823Z" fill="#405A45"/>
</svg>
