<svg width="400" height="149" viewBox="0 0 400 149" fill="none" xmlns="http://www.w3.org/2000/svg">
<path d="M332.347 6.64027C333.974 2.79016 339.874 3.80801 343.156 3.51298C346.528 3.2032 351.245 1.66906 354.335 3.58673C355.074 4.04403 356.464 5.93221 357.071 5.82895C359.377 2.27387 363.163 -2.00403 367.761 1.03475C369.122 1.93459 369.136 3.63099 369.595 3.92602C371.073 4.88486 373.188 2.30337 376.101 4.30956C377.313 5.15039 378.629 7.31884 379.029 8.73497C379.546 10.6084 379.103 12.113 379.753 13.8094C382.873 14.1192 385.594 13.7652 388.699 14.5618C396.018 16.4204 393.593 18.8987 393.726 24.6369C393.741 25.5515 394.14 26.3924 394.14 27.3069C394.185 32.765 394.244 37.1019 390.68 41.5715C392.44 42.8401 392.115 44.8906 392.795 46.4394C393.194 47.3245 394.421 48.4162 394.969 49.6848C396.506 53.1808 396.521 56.3376 394.51 59.6124C399.937 61.0433 400.691 65.631 398.458 70.3219C397.246 72.8739 392.529 77.2551 392.558 79.512C392.647 89.956 402.998 96.3728 399.138 110.062C398.148 113.588 394.688 116.995 394.2 118.677C393.238 122.025 394.096 123.088 391.715 126.643C384.322 137.721 364.065 138.768 352.058 137.736C349.382 137.5 343.807 136.084 341.678 136.275C338.676 136.541 331.327 139.742 327.453 140.642C319.912 142.397 312.164 143.68 304.593 145.288C279.471 150.599 250.637 147.59 225.396 143.872C209.028 141.468 192.674 137.559 176.113 136.6C160.069 135.67 145.756 139.137 129.994 140.465C111.969 141.969 93.6925 141.217 76.1557 136.57C71.3648 135.302 69.6052 133.782 64.0899 134.269C60.5263 134.579 55.5876 137.028 55.351 141.04C55.0996 145.465 59.3286 143.533 58.1161 146.867C56.2382 147.486 54.0794 146.483 53.2513 144.728C50.9003 139.712 55.7946 134.49 60.1566 132.661C60.6446 132.455 64.3264 131.791 63.9124 131.186C59.0624 128.973 55.6024 124.725 53.0739 120.152C39.7512 120.196 23.5747 120.491 12.0116 127.926C7.25036 130.98 1.39489 136.939 4.02689 143.164C6.20052 148.298 13.6382 142.589 16.7877 141.601C20.4695 140.435 26.0589 140.848 25.1421 145.878C24.2845 145.436 24.2697 144.241 23.3529 143.607C17.8375 139.771 9.70493 152.133 2.85876 147.044C-2.15388 143.312 0.285897 134.948 3.62766 130.803C13.8895 118.057 36.7495 116.494 51.891 116.494C49.5695 106.138 58.3675 94.2486 69.5313 99.0871C73.6568 100.872 78.8025 107.908 73.3019 110.608C68.4815 112.968 69.7975 105.976 68.8511 104.014C67.4168 101.093 64.2821 100.164 61.3691 101.403C55.8981 103.749 53.8132 111.05 54.9813 116.494C61.5022 116.464 68.0379 116.508 74.5735 116.494C104.768 116.464 134.991 118.736 165.23 118.013C185.857 117.512 206.691 116.818 227.259 115.314C251.421 113.543 274.31 108.248 298.25 105.312C307.994 104.117 317.798 103.188 327.601 102.495L328.045 101.787C325.767 97.7152 321.612 94.7944 317.014 93.8356C308.26 92.0064 298.25 97.5235 289.762 94.3519C286.391 93.0833 282.162 89.3217 285.031 85.5601C287.559 82.241 294.228 85.3978 296.076 84.2177C297.407 83.3769 294.997 82.9049 294.878 81.887C294.568 79.276 298.915 80.6036 297.836 84.026C296.431 88.4956 287.796 83.9522 286.273 87.1975C284.779 90.369 290.265 92.6407 292.779 92.8915C300.468 93.6733 307.802 90.2215 315.594 91.0033C321.967 91.6377 328.666 95.9303 330.603 102.126L342.58 101.787C342.816 92.213 338.676 82.5803 331.712 76.0455C326.876 77.1666 322.958 78.627 318.803 81.356C316.496 82.8754 314.5 85.5896 311.365 85.5749C308.231 85.5601 306.131 82.2263 303.78 80.7364C299.137 77.7861 293.089 77.4911 294.864 69.7171C289.348 68.537 286.302 63.4183 287.855 57.9308C282.768 55.4968 282.827 50.7026 281.127 46.1149C279.914 42.8254 278.539 43.3859 280.476 39.2703C282.191 35.6119 290.753 23.1028 293.755 20.8163C296.948 18.3971 299.832 17.9251 303.795 18.2644C303.706 13.5144 304.327 11.523 309.428 11.6705C312.607 11.759 319.823 12.1573 322.485 13.3374C324.999 14.4437 326.048 16.686 327.542 17.6153C329.183 18.6331 333.161 18.5446 335.186 19.4297C334.817 15.3141 330.499 11.0067 332.318 6.69927L332.347 6.64027ZM363.503 18.0136C361.403 15.2698 361.359 10.4904 363.192 7.62862C363.739 6.75829 367.717 3.86701 365.588 3.1737C362.054 2.03784 359.156 8.67595 358.875 11.4345C358.564 14.4437 359.037 17.3203 360.043 20.123L363.517 17.9988L363.503 18.0136ZM340.096 22.8078C341.131 24.0174 341.944 25.463 343.363 26.3186C344.236 23.5896 345.936 21.1999 347.045 18.5741C348.598 14.8715 348.775 9.48728 353.448 8.13016C352.028 3.91127 347.001 6.69927 343.955 6.9648C342.166 7.12706 335.837 6.3895 335.039 7.73188C333.974 9.51679 337.212 14.4437 337.833 16.5532C338.173 17.7038 338.587 21.5982 338.809 21.9669C338.913 22.144 339.756 22.3947 340.096 22.793V22.8078ZM362.231 20.9786C357.307 23.6633 350.491 24.991 348.021 30.5817C349.13 30.4785 349.81 29.6967 350.964 29.4606C353.463 28.9148 356.42 29.2984 358.904 28.8706C363.488 28.0888 363.71 24.8435 366.238 21.8784C369.802 17.689 378.127 15.7566 375.657 8.63171C375.243 7.43685 374.667 6.21248 373.232 6.22723C372.375 13.4997 368.412 17.6153 362.246 20.9786H362.231ZM364.612 15.7714C364.183 13.4702 362.379 9.5758 366.135 9.00049C367.835 8.73497 369.166 10.0478 370.482 10.8592L371.147 8.33668C365.041 2.87867 361.373 10.7411 363.902 16.2729C364.553 16.2729 364.745 16.5237 364.597 15.7714H364.612ZM346.498 30.4195C349.515 24.4747 352.694 23.5601 358.461 20.6983C356.701 17.1727 356.583 13.5292 357.307 9.70855C349.943 8.88248 350.638 16.1254 348.583 20.9196C347.104 24.3862 343.437 27.0562 345.685 30.98C346.69 31.157 346.276 30.8473 346.483 30.4342L346.498 30.4195ZM369.654 12.2015C364.774 7.65812 365.321 12.3048 365.854 16.2582L369.654 12.2015ZM306.22 20.6098C306.397 21.3179 309.458 25.5958 310.02 25.1532C311.099 20.2705 313.687 21.6572 317.206 21.7014C318.285 21.7162 319.321 21.1999 320.267 21.2884C322.588 21.4949 324.171 24.2091 324.378 26.3038C327.542 23.3978 325.442 18.3234 322.026 16.4647C317.147 13.8242 312.06 16.5237 306.944 14.6945C307.329 16.3319 305.894 19.1937 306.234 20.5803L306.22 20.6098ZM369.092 42.1321C372.641 41.8223 376.145 40.8044 379.65 40.2881C383.494 39.7276 387.457 41.1585 389.379 36.8511C391.819 31.4226 388.462 24.3419 390.606 18.6184C388.803 17.8956 387.013 17.1875 385.032 17.0105C383.095 16.8482 377.506 16.6122 376.293 17.9841C374.711 19.7542 376.145 25.6695 375.909 28.428C375.524 32.8535 372.582 40.7454 367.776 41.778C367.687 42.4714 368.648 42.1468 369.077 42.1173L369.092 42.1321ZM370.098 38.1049C374.504 32.1896 373.912 25.5073 373.587 18.5889C372.138 19.651 370.482 20.4771 369.122 21.6719C364.346 25.9203 365.78 30.1392 357.455 30.9063C353.093 31.3193 343.452 29.8884 350.52 36.9986C352.221 36.4528 354.069 36.3643 355.755 35.789C359.762 34.4024 362.763 29.1066 366.43 33.6648C367.85 35.4202 368.294 37.6181 368.175 39.8604C368.929 39.9784 369.698 38.6507 370.112 38.1197L370.098 38.1049ZM333.471 31.7471C335.822 34.3581 338.425 34.5351 337.848 39.167C337.227 44.0645 333.294 51.809 336.015 56.9424C336.251 57.3997 337.064 57.5325 337.508 58.2553C338.765 60.232 337.508 61.8251 341.264 61.8989C343.999 61.9579 345.744 58.7864 346.217 56.4114C347.311 51.0271 345.685 44.4923 348.347 39.3146C342.107 32.1159 339.327 21.1409 327.867 20.9048C329.139 25.0647 330.529 28.4723 333.471 31.7471ZM293.725 37.8984C293.414 35.4497 293.459 33.0452 295.307 31.1718C297.377 29.0624 300.246 29.5639 302.967 28.7526C305.037 28.133 306.471 26.9087 308.482 26.3334L304.357 21.3769C294.849 19.5035 291.596 28.9886 287.411 35.2874C285.918 37.5444 283.803 39.3145 282.679 41.8075C282.458 42.8696 283.951 44.7578 284.365 45.9527C285.43 48.9915 285.474 52.8416 288.594 54.4937C289.437 54.9362 291.566 55.2903 291.788 55.9688C291.049 59.2436 288.979 61.2498 291.64 64.5984C294.095 67.6814 297.555 65.867 298.812 66.7226C300.068 67.5782 298.457 68.8911 298.22 69.6434C296.342 75.7062 301.503 74.5556 305.051 76.7388C306.944 77.9041 309.68 81.887 311.38 82.0493C314.308 82.3148 318.226 77.1518 321.258 75.6177C325.782 73.3312 329.863 74.4523 332.821 69.7614C334.063 67.7847 337.73 60.7925 335.053 59.1846C330.174 57.326 330.203 62.6955 328.015 64.9672C325.117 67.9765 321.258 67.1799 319.084 63.8608C315.816 65.5425 313.302 65.9408 309.768 64.6869C304.578 62.843 301.562 56.6917 298.013 55.1428C296.475 54.479 295.618 55.1133 293.755 53.5939C290.945 51.3074 292.276 49.6553 291.241 47.5901C291.004 47.1033 290.235 47 290.014 46.6902C287.263 42.9139 289.348 38.754 293.725 37.8984ZM317.206 23.6486C315.58 23.6338 313.864 22.38 312.563 24.0174C310.907 26.0973 313.421 26.6284 314.678 28.074C317.236 31.0095 320.282 38.0754 321.376 41.8813C323.195 48.1801 324.126 56.4556 320.178 62.0907C322.47 65.3065 325.531 66.2948 327.69 62.2972C331.475 55.2903 323.032 44.2858 322.426 36.5855C322.204 33.886 323.505 24.1796 320.622 23.2946C319.439 22.9405 318.359 23.6633 317.206 23.6486ZM334.063 56.4852C332.673 52.8121 333.205 48.4752 334.092 44.7283C334.625 42.4861 336.266 39.5506 336.029 37.3379C335.793 35.1252 331.904 32.8534 330.41 30.9358C328.917 29.0181 328.473 26.9972 327.083 25.168C326.906 27.0414 324.792 28.8411 324.451 30.4785C322.514 39.8899 329.642 48.2391 330.573 57.267L334.063 56.4852ZM311.336 43.3859C313.983 47.4721 320.651 52.7236 318.448 58.1226C317.517 60.3943 316.674 59.7747 315.106 60.586C312.741 61.7956 311.632 63.1675 308.733 61.4564C305.658 59.6272 307.033 56.1754 306.16 55.5116L301.503 55.128C305.539 59.1994 313.421 69.1861 318.877 61.2498C323.742 54.1839 319.557 39.2113 315.52 32.2486C311.129 24.6517 309.99 29.0033 303.44 30.5817C307.61 34.0188 308.6 39.1523 311.336 43.3859ZM305.569 43.7252C309.576 48.5342 316.91 51.5139 316.422 58.8011C319.779 53.5054 312.8 48.6817 310.108 44.6103C307.654 40.9077 305.628 33.532 301.281 31.7766C297.436 30.2277 295.115 32.9715 295.692 36.7626C301.769 35.6267 302.612 40.1701 305.569 43.7252ZM360.989 48.3571C363.518 43.7695 369.846 38.813 364.005 33.7238C362.63 33.355 359.259 36.6003 357.307 37.3379C355.548 38.0017 351.289 38.0607 350.816 39.3736C350.446 40.4062 349.5 46.2624 349.529 47.3983C349.559 48.6522 351.067 53.5201 351.881 54.3757C353.3 55.8656 356.124 55.8508 358.032 55.6591C358.86 53.1808 359.717 50.6731 360.989 48.3571ZM301.118 39.8456C300.586 38.813 299.152 38.0754 298.013 37.9132L301.118 39.8456ZM299.181 40.6274C292.838 35.2579 285.223 45.5396 295.307 47.2065C293.148 43.8137 295.514 40.834 299.181 40.6274ZM382.962 43.6662C387.782 43.0467 389.69 47.6786 384.1 48.4014L384.071 51.0714L389.69 47.6196C389.734 43.0466 386.126 40.6127 381.735 41.4093L382.962 43.6662ZM376.707 45.4511C379.605 50.4961 377.801 59.7452 374.829 64.4804C368.427 74.6883 361.078 64.5689 358.032 57.6948C355.71 57.6062 353.034 57.2817 351.112 55.8803C350.343 55.3198 350.638 54.3167 349.559 54.538L349.618 56.4114C356.76 58.8159 359.584 71.1775 367.288 72.2396C375.406 73.3607 381.528 58.4471 382.104 52.0155C382.267 50.1421 382.518 41.8665 379.99 41.542L374.356 42.5599C374.681 43.8137 375.909 44.0792 376.692 45.4511H376.707ZM295.411 45.0086C295.514 48.0326 301.325 48.8144 303.588 50.3633C304.978 51.3222 305.894 52.8711 307.329 53.7856C307.713 52.399 308.659 50.7026 308.245 49.2275C308.068 48.5784 305.229 45.2889 304.578 44.7431C302.774 43.1942 298.264 41.1437 296.194 43.0614C295.928 43.3122 295.411 44.6103 295.425 45.0233L295.411 45.0086ZM359.303 56.7507C362.187 60.645 367.022 71.5168 372.596 64.5836C375.879 60.4828 379.088 45.2446 372.153 43.8137C363.769 42.1025 362.29 51.3222 359.303 56.7507ZM383.672 46.823L385.993 46.4247C386.318 44.9348 384.781 44.6545 383.672 44.4923V46.8082V46.823ZM303.824 53.0038C301.296 50.1273 296.963 49.5225 293.355 48.7554C293.429 54.9953 299.699 52.7235 303.824 53.0038ZM392.573 56.4704C393.741 55.1428 391.849 48.8587 390.237 49.2865C387.575 51.1599 382.977 53.0333 383.287 56.8687C386.289 54.3609 389.261 55.4083 392.573 56.4704ZM308.171 58.1373C308.985 61.7366 315.52 61.2351 314.515 56.0721C314.13 54.0807 311.543 50.9976 309.635 50.2896C309.872 52.9891 307.565 55.4378 308.157 58.1373H308.171ZM380.714 73.8328C388.108 70.3219 386.629 63.0348 388.699 56.4852C382.503 55.9689 381.735 61.8104 379.324 65.8818C377.239 69.3926 374.253 72.9624 370.098 73.8917C372.537 76.0307 377.89 75.1751 380.714 73.8328ZM347.445 62.2382C347.252 63.3593 347.755 65.5867 347.622 67.1061C347.06 72.9624 345.345 75.3816 348.731 81.0904C351.008 84.9258 358.046 90.369 362.009 92.5965C367.865 95.9008 370.157 94.7207 371.65 88.2006L352.635 83.6719C352.028 82.4328 352.782 81.3264 352.635 79.9103C352.265 76.2077 349.884 73.6852 352.324 69.4811C353.019 68.2862 356.169 66.3243 356.095 65.631C355.71 64.2739 350.284 57.6063 349.175 58.4176C349.13 59.7009 347.622 61.1761 347.445 62.2382ZM370.97 85.2061C375.095 86.4599 380.921 89.5577 384.825 90.3395C389.453 91.2689 386.821 87.168 386.762 84.144C386.585 74.8506 392.81 73.5082 396.018 67.4454C398.517 62.725 392.07 63.5953 389.497 61.1318C389.586 63.3003 389.29 65.7195 388.61 67.7994C387.96 69.7614 386.599 71.1333 385.83 72.7707C385.328 73.8623 385.387 75.2636 384.662 76.6355C382.918 79.8808 379.768 80.6774 376.293 79.9103C373.321 78.3614 370.482 75.8979 367.495 74.3785C365.203 73.2132 363.651 73.3755 361.181 71.3988C360.427 70.794 357.499 67.2684 357.145 67.3422C350.505 71.7676 354.527 76.193 354.646 82.359C360.043 83.4801 365.662 83.6277 370.955 85.2356L370.97 85.2061ZM346.469 101.713C347.223 101.639 348.228 101.89 348.923 101.654C349.84 101.344 352.368 93.4816 352.575 92.154C353.152 88.4514 351.57 89.0857 349.559 86.8434C346.365 83.2589 343.334 78.2729 343.334 73.3017C343.334 71.8413 345.212 64.9229 344.916 64.5984L341.486 65.808C340.288 78.2729 349.308 89.1447 346.469 101.713ZM333.309 74.7916C337.952 79.0695 341.323 83.9669 343.245 90.0297L345.286 98.6151C345.877 88.4514 340.125 79.4825 339.46 69.4369C339.356 67.9175 340.465 65.336 338.706 65.3655C338.129 69.1271 335.556 71.9298 333.309 74.7916ZM376.618 78.0074C379.546 78.9367 381.912 77.6681 383.287 75.0424C380.759 76.0897 378.334 77.1371 375.539 77.3583C375.45 77.9189 376.219 77.8746 376.618 78.0074ZM380.951 94.9715C379.975 93.8209 376.16 90.2068 374.948 89.7495C374.223 89.4692 374.46 90.0297 374.341 90.2805C371.591 96.5351 370.038 99.0281 362.423 96.7564L358.49 102.111C367.806 103.099 377.343 104.53 385.623 109.074C385.431 107.333 385.89 105.135 385.623 103.468C385.283 101.27 382.459 96.7416 380.966 94.9715H380.951ZM352.28 101.713C354.601 103.35 358.475 96.4319 360.028 95.3403L355 92.0507L352.28 101.713ZM332.126 125.699C332.924 126.834 335.467 127.218 336.606 126.48L347.829 115.638L356.538 109.826H348.406C344.857 116.42 339.001 122.557 332.126 125.684V125.699ZM344.532 110.224C343.408 110.106 343.053 111.7 342.994 112.54C343.497 112.422 344.813 110.505 344.532 110.224ZM329.479 118.22C328.473 120.491 326.788 122.261 325.93 124.533C327.024 125.522 333.072 120.639 334.078 119.71C335.26 118.603 341.16 111.832 340.273 110.623L331.445 112.26C330.869 114.266 330.337 116.302 329.479 118.22ZM340.11 127.985C342.461 128.723 349.692 129.858 351.925 129.401C354.927 128.767 365.528 122.925 368.826 121.14C370.822 120.049 375.657 117.615 377.077 116.213C377.402 115.889 377.624 115.859 377.476 115.269C366.992 108.085 357.381 110.726 348.406 118.544C345.256 121.273 342.624 125.094 339.105 127.247C339.179 127.838 339.682 127.852 340.11 127.985ZM307.861 118.382L322.928 123.309C324.525 122.94 329.316 113.293 328.621 112.54L307.299 117.571L307.846 118.382H307.861ZM379.398 117.954L357.307 129.932C359.377 129.799 361.654 130.124 363.695 129.932C369.536 129.386 381.971 125.876 379.384 117.954H379.398ZM124.907 123.442C162.731 128.944 200.451 135.907 238.542 139.609C254.585 141.173 272.151 143.297 287.958 140.199C296.948 138.429 305.362 135.582 313.524 131.481C313.45 130.95 312.992 130.817 312.533 130.729C295.1 127.572 274.916 127.734 257.113 126.864C223.445 125.212 189.731 124.223 155.959 122.616C137.963 121.76 120.116 119.075 102.121 118.338C96.1175 118.087 90.0846 118.116 84.0813 117.969L124.907 123.442ZM77.4865 129.755C93.0419 133.089 112.989 134.254 128.796 132.602C134.06 132.056 139.279 130.921 144.543 130.331C144.455 129.74 142.887 129.711 142.355 129.622C133.646 128.147 124.759 126.952 116.005 125.743C96.8273 123.117 77.5161 120.668 58.1161 120.285C62.5816 126.303 70.4924 128.251 77.4865 129.755ZM294.671 141.881C296.875 141.674 298.797 141.689 300.911 141.542C306.782 141.143 312.489 140.701 317.916 138.399C321.065 137.057 324.052 135.198 327.083 133.62C326.743 133.074 326.255 133.163 325.753 133.015C324.555 132.691 318.611 131.555 317.738 131.702C316.866 131.85 310.33 135.892 308.467 136.703C303.632 138.827 298.501 140.361 293.37 141.556C293.281 142.25 294.243 141.94 294.671 141.896V141.881ZM331.741 136.718C333.057 136.32 335.113 135.951 336 134.977L330.854 134.269L323.978 138.458C326.551 138.311 329.242 137.47 331.726 136.718H331.741ZM269.919 145.406C275.671 145.642 281.482 145.421 287.175 144.831C280.979 144.315 274.754 144.743 268.573 145.023C268.484 145.701 269.445 145.392 269.919 145.406Z" fill="#C28E8F"/>
</svg>
