<svg width="40" height="40" viewBox="0 0 40 40" fill="none" xmlns="http://www.w3.org/2000/svg">
<path d="M8.44238 19.7988V31.3649H20.0085L17.5964 28.9528H10.8545V22.2109L8.44238 19.7988Z" fill="#814041"/>
<path d="M39.6432 37.7446L36.1818 34.235V37.3949H2.41214V32.3897H4.82426V30.46H2.41214V22.4397H4.82426V20.51H2.41214V12.7913H4.82426V10.8616H2.41214V4.11968L21.6367 23.2357V19.8346L2.06238 0.356772C1.89369 0.186682 1.67817 0.0706823 1.44329 0.023562C1.20841 -0.0235584 0.964823 0.000335316 0.743579 0.092197C0.522335 0.184059 0.333458 0.339727 0.201032 0.539353C0.068605 0.73898 -0.00137271 0.973521 2.04029e-05 1.21307V38.6009C2.04029e-05 38.9208 0.127087 39.2276 0.353267 39.4538C0.579448 39.6799 0.886214 39.807 1.20608 39.807H38.7869C39.0265 39.8084 39.261 39.7384 39.4606 39.606C39.6603 39.4736 39.8159 39.2847 39.9078 39.0634C39.9997 38.8422 40.0236 38.5986 39.9764 38.3637C39.9293 38.1289 39.8133 37.9133 39.6432 37.7446Z" fill="#814041"/>
<path d="M26.5332 34.9829H31.3575C31.9972 34.9829 32.6107 34.7287 33.0631 34.2764C33.5154 33.824 33.7696 33.2105 33.7696 32.5707V9.29377L30.9956 4.19213C30.7811 3.82045 30.4713 3.51273 30.0982 3.30073C29.725 3.08872 29.3021 2.9801 28.873 2.98607C28.4341 2.98956 28.0046 3.11269 27.6305 3.34221C27.2565 3.57174 26.9522 3.89895 26.7503 4.28862L24.1211 9.31789V32.5707C24.1211 33.2105 24.3752 33.824 24.8276 34.2764C25.2799 34.7287 25.8935 34.9829 26.5332 34.9829ZM26.5332 9.8968L28.873 5.34995L31.3575 9.90886V27.7465H26.5332V9.8968ZM26.5332 29.7124H31.3575V32.6552H26.5332V29.7124Z" fill="#814041"/>
</svg>
