<svg width="40" height="40" viewBox="0 0 40 40" fill="none" xmlns="http://www.w3.org/2000/svg">
<path d="M13.3333 40C11.4696 40 9.7363 39.6496 8.13333 38.9489C6.52889 38.2482 5.12222 37.2941 3.91333 36.0867C2.70593 34.8778 1.75185 33.4719 1.05111 31.8689C0.35037 30.2645 0 28.5304 0 26.6667C0 24.037 0.699259 21.617 2.09778 19.4067C3.4963 17.1963 5.41259 15.5563 7.84667 14.4867C8.52963 12.9563 9.43185 11.6304 10.5533 10.5089C11.6748 9.38741 12.9859 8.5 14.4867 7.84667C15.5385 5.47037 17.1459 3.56815 19.3089 2.14C21.4704 0.713334 23.923 0 26.6667 0C28.5304 0 30.2637 0.350371 31.8667 1.05111C33.4711 1.75185 34.877 2.70667 36.0844 3.91556C37.2933 5.12296 38.2481 6.52889 38.9489 8.13334C39.6496 9.73778 40 11.4711 40 13.3333C40 16.083 39.3074 18.5193 37.9222 20.6422C36.5385 22.7637 34.6156 24.3874 32.1533 25.5133C31.4704 27.0422 30.5748 28.3607 29.4667 29.4689C28.36 30.5756 27.0415 31.4704 25.5111 32.1533C24.4444 34.5296 22.8341 36.4319 20.68 37.86C18.5259 39.2882 16.077 40.0015 13.3333 40ZM13.42 37.7778C15.0689 37.7778 16.7215 37.3793 18.3778 36.5822C20.0341 35.7852 21.3444 34.617 22.3089 33.0778C20.0467 33.4763 17.9067 33.3178 15.8889 32.6022C13.8711 31.8882 12.1304 30.8126 10.6667 29.3756C9.20296 27.9119 8.11333 26.1785 7.39778 24.1756C6.68222 22.1726 6.52445 20.04 6.92445 17.7778C5.41333 18.7704 4.25185 20.0733 3.44 21.6867C2.62815 23.3 2.22222 24.96 2.22222 26.6667C2.22222 28.2222 2.51852 29.6741 3.11111 31.0222C3.7037 32.3704 4.5 33.5437 5.5 34.5422C6.52815 35.5422 7.7163 36.3311 9.06444 36.9089C10.4126 37.4882 11.8644 37.7778 13.42 37.7778ZM20 31.1111C22.1333 31.1111 23.9689 30.6267 25.5067 29.6578C27.0444 28.6889 28.2089 27.6067 29 26.4111C26.7289 26.8096 24.5852 26.6489 22.5689 25.9289C20.5526 25.2089 18.8119 24.1319 17.3467 22.6978C15.8815 21.2326 14.7896 19.4985 14.0711 17.4956C13.3511 15.4926 13.1911 13.3563 13.5911 11.0867C12.3081 11.9637 11.2178 13.1778 10.32 14.7289C9.42519 16.28 8.97778 18.037 8.97778 20C8.97778 21.5556 9.26445 23 9.83778 24.3333C10.4111 25.6667 11.2022 26.8333 12.2111 27.8333C13.2111 28.8704 14.3711 29.6756 15.6911 30.2489C17.0081 30.8237 18.4444 31.1111 20 31.1111ZM26.7533 24.4445C27.42 24.4445 28.0585 24.3889 28.6689 24.2778C29.2793 24.1667 29.9 24 30.5311 23.7778C31.3459 21.5556 31.4659 19.417 30.8911 17.3622C30.3163 15.3074 29.3259 13.5756 27.92 12.1667C26.5141 10.7578 24.7822 9.76667 22.7244 9.19334C20.6667 8.62 18.5281 8.74074 16.3089 9.55556C16.0867 10.1852 15.92 10.8052 15.8089 11.4156C15.6978 12.0259 15.6422 12.6652 15.6422 13.3333C15.6422 14.8889 15.9289 16.3333 16.5022 17.6667C17.0756 19 17.8815 20.1667 18.92 21.1667C19.92 22.2037 21.0867 23.0089 22.42 23.5822C23.7533 24.1556 25.1978 24.443 26.7533 24.4445ZM33.1622 22.2467C34.5874 21.2837 35.7133 20.0763 36.54 18.6244C37.3667 17.1726 37.7793 15.4089 37.7778 13.3333C37.7778 11.7778 37.4911 10.3333 36.9178 9C36.3444 7.66667 35.5385 6.5 34.5 5.5C33.5 4.46296 32.3333 3.65778 31 3.08445C29.6667 2.51111 28.2222 2.2237 26.6667 2.22222C24.7719 2.22222 23.0748 2.64222 21.5756 3.48222C20.0763 4.32222 18.8022 5.46889 17.7533 6.92222C20.023 6.52371 22.1667 6.68445 24.1844 7.40445C26.2022 8.12445 27.943 9.20148 29.4067 10.6356C30.8704 12.1007 31.9622 13.8348 32.6822 15.8378C33.4007 17.8407 33.5607 19.977 33.1622 22.2467Z" fill="#814041"/>
</svg>
