<svg width="45" height="38" viewBox="0 0 45 38" fill="none" xmlns="http://www.w3.org/2000/svg">
<path d="M34.7607 16.3696C35.3613 17.4243 35.8081 18.5229 36.1011 19.6655C36.394 20.8081 36.5479 21.9873 36.5625 23.2031V25.4663L22.5 32.5195L8.4375 25.4663C8.4375 24.5874 8.44482 23.7671 8.45947 23.0054C8.47412 22.2437 8.54004 21.5039 8.65723 20.7861C8.77441 20.0684 8.9502 19.3506 9.18457 18.6328C9.41895 17.915 9.77051 17.1606 10.2393 16.3696L5.625 14.0625V26.9604C6.0498 27.1069 6.43066 27.312 6.76758 27.5757C7.10449 27.8394 7.40479 28.147 7.66846 28.4985C7.93213 28.8501 8.12256 29.231 8.23975 29.6411C8.35693 30.0513 8.42285 30.4834 8.4375 30.9375V37.9688H0V30.9375C0 30.498 0.065918 30.0732 0.197754 29.6631C0.32959 29.2529 0.52002 28.8647 0.769043 28.4985C1.01807 28.1323 1.31104 27.8247 1.64795 27.5757C1.98486 27.3267 2.37305 27.1216 2.8125 26.9604V12.6562L0 11.25L22.5 0L45 11.25L34.7607 16.3696ZM5.625 30.9375C5.625 30.5566 5.48584 30.2271 5.20752 29.9487C4.9292 29.6704 4.59961 29.5312 4.21875 29.5312C3.83789 29.5312 3.5083 29.6704 3.22998 29.9487C2.95166 30.2271 2.8125 30.5566 2.8125 30.9375V35.1562H5.625V30.9375ZM6.28418 11.25L22.5 19.3579L38.7158 11.25L22.5 3.14209L6.28418 11.25ZM33.75 23.7305C33.75 22.6025 33.6401 21.5552 33.4204 20.5884C33.2007 19.6216 32.8125 18.6328 32.2559 17.6221L22.5 22.5L12.7441 17.6221C12.2607 18.4717 11.8945 19.3652 11.6455 20.3027C11.3965 21.2402 11.2646 22.207 11.25 23.2031V23.7305L22.5 29.3555L33.75 23.7305Z" fill="#814041"/>
</svg>
